<?xml version="1.0" encoding="utf-8"?>
<!-- Generator: Adobe Illustrator 26.0.2, SVG Export Plug-In . SVG Version: 6.00 Build 0)  -->
<svg version="1.1" id="Layer_1" xmlns="http://www.w3.org/2000/svg" xmlns:xlink="http://www.w3.org/1999/xlink" x="0px" y="0px"
	 viewBox="0 0 564 564" style="enable-background:new 0 0 564 564;" xml:space="preserve">
<style type="text/css">
	.st0{fill:#FFFFFF;}
	.st1{fill:#E6E6E6;}
	.st2{fill:#D5D5D5;}
	.st3{fill:#F4F4F4;}
</style>
<rect x="0" class="st0" width="564" height="564"/>
<g>
	<path class="st1" d="M0,293c0-4.33,0-8.67,0-13c1.97-3.02,4.33-5.85,5.84-9.08c4.18-8.91,4.33-9.15,13.92-7.79
		c0.82,0.12,1.63,0.34,2.46,0.44c6.93,0.88,13.84,2.11,20.8,2.55c12.15,0.77,21.15-4.68,27.32-15.04c0.77-1.29,1.48-2.63,2.41-3.79
		c2.53-3.16,5.42-2.99,7.69,0.36c2.62,3.86,2.1,7.64-1.86,11.03c-4.17,3.58-8.6,6.84-12.77,10.42c-4.5,3.86-9.66,5.58-15.53,5.96
		c-9.25,0.6-18.23-0.65-27.26-2.52c-7.49-1.55-13.79,4.12-13.87,11.81c-0.07,7.3,8.19,14.46,16.37,14.18
		c11.97-0.4,23.93-0.88,35.9-1.17c3.86-0.09,7.16-1.27,10.05-3.76c7.06-6.1,14.38-11.92,21.1-18.37c3.84-3.69,8.04-5.07,13.04-5.07
		c5.5,0,11.03,0.33,16.49-0.09c7.32-0.57,14.14,0.49,20.87,3.53c3.41,1.54,7.34,2.17,11.1,2.61c6.02,0.71,11.4-0.68,14.19-6.81
		c3.08-6.77,6.19-13.65-0.05-20.42c-2.94-3.18-5.91-6.34-8.99-9.37c-3.74-3.68-4.71-8.36-4.9-13.25c-0.1-2.68,1.1-4.96,4.1-5.46
		c2.66-0.45,3.89,1.39,4.84,3.46c0.28,0.6,0.59,1.21,0.73,1.86c1.73,8.03,7.05,13.84,12.22,19.73c2.88,3.29,6.55,5.08,10.97,5.18
		c5.16,0.11,10.34,0.42,15.49,0.16c2.57-0.13,5.25-1.01,7.59-2.14c8.18-3.98,9.4-10.72,2.87-17.13c-3.5-3.44-5.43-7.23-6.45-11.99
		c-1.52-7.13-7.26-10.48-13.52-12.72c-1.17-0.42-3.49,0.73-4.47,1.85c-1.49,1.71-0.24,3.48,1.38,4.62c0.92,0.65,2.17,0.82,3.13,1.43
		c2.07,1.32,4.4,2.47,5.99,4.25c2.42,2.73,2.49,6.54,0.77,8.25c-1.85,1.84-6.95,2.11-9.41,0.37c-0.94-0.66-1.81-1.51-2.46-2.45
		c-1.89-2.74-3.77-5.49-5.43-8.37c-2.19-3.82-3.09-7.85-0.19-11.73c3.11-4.16,7-7.24,12.55-7c7.55,0.33,17.15,7.99,19.08,15.34
		c1.46,5.58,3.83,10.61,7.32,15.18c1.82,2.38,3.49,4.89,5.01,7.47c3.1,5.27,3.05,7.19-1.19,11.53
		c-9.08,9.28-19.73,14.62-33.17,12.08c-1.47-0.28-2.95-0.62-4.44-0.74c-6.02-0.49-9.92,3.14-11.6,10.68
		c-1.32,5.91,0.21,9.18,6.33,11.05c5.38,1.64,11,2.8,16.59,3.28c3.28,0.28,6.86-0.75,10.04-1.92c6.07-2.24,12.05-4.79,17.85-7.65
		c3.36-1.65,6.67-3.78,9.35-6.37c3.85-3.73,8-6.22,13.34-7.22c10.82-2.04,15.64-7.48,17.34-18.36c0.82-5.25-0.74-9.25-5.35-11.82
		c-3.92-2.19-8.33-3.62-11.94-6.21c-4.54-3.25-8.71-7.11-12.53-11.18c-1.07-1.14-1.09-4.36-0.25-5.87c0.69-1.22,3.74-2.21,5.14-1.69
		c2.63,0.99,5.51,2.67,7.05,4.91c4.87,7.05,11.94,10.98,19.16,14.81c3.44,1.82,7.14,2.15,10.58,0.33
		c5.13-2.71,10.15-5.65,15.02-8.79c2.94-1.9,4.36-4.91,4.38-8.54c0.02-4.66-0.2-9.37,0.35-13.98c0.42-3.53,1.34-7.21,2.98-10.33
		c2.32-4.39,5.5-8.33,8.36-12.42c3.02-4.33,3.91-9,3.01-14.24c-2.03-11.75-4.58-23.22-13-32.43c-2.89-3.16-3.33-7.05-2.57-11.26
		c0.65-3.59,1.03-7.26,1.08-10.91c0.11-7.91-4.37-12.57-12.32-13.46c-10.57-1.18-23.65,3.05-27.94,17.42
		c-1.25,4.17-3.69,8.21-6.42,11.65c-3.3,4.18-7.43,4.72-9.95,2.34c-2.72-2.57-2.28-5.74,1.83-9.95c3.68-3.75,6.83-7.79,8.23-12.91
		c1.63-5.99,5.4-9.78,11.24-11.66c1.74-0.56,3.46-1.22,5.11-2c10.79-5.07,21.27-3.83,31.79,1.09c4.66,2.18,6.99,5.23,6.78,10.42
		c-0.19,4.83,0.18,9.68-0.09,14.5c-0.33,5.96,1.21,11.29,4.88,15.87c5.1,6.36,7.74,13.48,7.85,21.63c0.03,1.98,0.43,3.99,0.92,5.92
		c1.18,4.61,3.95,7.67,8.89,8.25c8.39,0.97,16.31-0.54,23.36-5.26c6.51-4.36,9.63-13.37,7.32-20.78c-1.59-5.1-4.82-10.1-15.96-9.93
		c-0.33,0.01-0.71,0.1-0.99-0.02c-2.04-0.89-4.41-1.42-6.03-2.82c-9.54-8.21-9.65-19.11-8.11-30.33c0.17-1.21,0.92-2.75,1.89-3.38
		c4.03-2.6,8.17-5.07,12.45-7.22c1-0.5,3.31-0.02,3.95,0.82c0.83,1.1,1.29,3.4,0.67,4.49c-1.27,2.24-3.05,4.47-5.17,5.87
		c-4.77,3.16-6.55,7.35-5.67,12.82c0.89,5.54,4.24,8.83,9.57,10.31c3.04,0.84,6.13,1.65,9.04,2.84c9.92,4.03,14.88,11.79,13.75,22.4
		c-0.5,4.73-1.98,9.42-3.51,13.96c-1.69,5.02-5.45,7.91-10.52,9.82c-9.23,3.47-18.8,4.28-28.45,4.69c-4.05,0.18-7.19,1.82-9.19,5.12
		c-3.45,5.67-7.03,11.35-9.64,17.42c-1.5,3.5-1.78,7.8-1.6,11.7c0.34,7.26,6.1,10.77,13.08,8.49c3.52-1.15,6.05-3.52,7.58-6.82
		c1.19-2.56,2.07-5.26,3.1-7.9c1.43-3.64,3.85-6,7.86-6.9c8.26-1.86,16.47-3.93,24.68-6.03c2.62-0.67,4.65-0.05,6.05,2.18
		c2.43,3.86,0.11,8.84-4.45,9.33c-3.97,0.43-7.98,0.42-11.96,0.7c-7.07,0.49-12.77,3.23-16.45,9.68c-2.06,3.6-4.56,6.97-7,10.33
		c-2.78,3.84-6.43,5.68-11.29,4.38c-1.44-0.38-2.99-0.36-4.44-0.72c-5.57-1.39-10.43,0.03-15.14,3.14c-4.86,3.21-9.9,6.16-15,8.97
		c-4.02,2.21-6.66,5.26-8.08,9.66c-1.74,5.38-3.78,10.67-5.87,15.93c-2.07,5.21-5.81,8.23-11.58,8.98
		c-3.59,0.47-7.19,1.48-10.57,2.79c-3.41,1.33-5.82,3.93-5.93,7.92c-0.22,7.66,6.58,13.79,14.16,12.28
		c7.17-1.43,14.26-3.35,21.28-5.4c4.52-1.32,7.46-4.2,8.89-9.14c1.93-6.68,4.31-13.34,7.44-19.53c3.93-7.77,11.68-11.21,19.43-13.86
		c4.42-1.51,6.97,1.96,5.24,6.44c-1.47,3.83-3.84,6.61-8.38,6.67c-5.66,0.07-9.35,3-11.48,8.08c-1.03,2.45-2.16,4.88-2.93,7.42
		c-3.74,12.38-0.59,18.07,12.03,21.29c2.84,0.72,5.94,0.63,8.91,0.56c1.42-0.03,3.08-0.55,4.19-1.42
		c6.54-5.08,12.16-10.73,13.51-19.59c0.87-5.73,2.69-11.31,4.01-16.98c0.98-4.2,2.04-8.4,2.71-12.66
		c1.58-9.97,7.9-16.56,15.51-22.27c0.64-0.48,1.5-0.71,2.29-0.93c6.35-1.77,11.67-0.67,16.02,4.82c6,7.56,12.9,14,23.15,15.26
		c0.79,0.1,1.59,0.52,2.3,0.94c3.08,1.8,3.7,4.65,1.72,7.62c-1.91,2.86-5.46,3.8-9.36,1.76c-3.66-1.92-7.16-4.28-10.38-6.88
		c-4.4-3.55-8.38-7.62-12.68-11.29c-4.91-4.18-9.53-3.84-14.18,0.69c-3.28,3.19-5.25,6.97-4.89,11.58
		c0.34,4.37-1.19,7.91-3.22,11.71c-2.07,3.86-3.02,8.39-4.03,12.72c-0.95,4.03-1.28,8.21-1.99,12.3c-0.59,3.4,0.39,5.54,2.87,5.86
		c2.48,0.33,4.38-1.34,4.82-4.58c0.31-2.3,0.21-4.66,0.41-6.98c0.48-5.61,0.18-11.37,3.29-16.48c2.12-3.48,4.15-4.69,7.86-3.13
		c3.46,1.46,6.57,3.78,9.76,5.83c5.44,3.49,10.53,7.69,16.31,10.47c8.63,4.16,22.74,1.22,28.79-5.44
		c7.56-8.33,10.88-18.25,9.6-29.46c-1.17-10.19-4.99-13.98-15.07-16.53c-4.48-1.14-9.07-2.46-13.1-4.65
		c-7.19-3.91-8.68-8.46-6.45-16.29c0.37-1.28,0.78-2.55,1.23-3.8c1.93-5.36,1.87-10.83-1.61-15.28c-6.12-7.84-5.01-15.35-0.31-23.11
		c0.26-0.43,0.41-0.91,0.65-1.35c3.3-6.17,3.83-12.66,2.3-19.41c-0.92-4.06-2.06-8.1-2.55-12.22c-0.93-7.79-4.97-12.92-11.74-16.77
		c-11.3-6.42-11.89-5.33-8.28-19.57c0.92-3.63,1.72-7.7,1.01-11.27c-3.21-16.2-21.35-20.52-30.69-15.93
		c-4.63,2.27-9.36,4.36-13.97,6.68c-4.69,2.36-9.21,2.11-13.94,0.04c-4.87-2.13-9.79-4.24-14.87-5.8
		c-12.12-3.71-24.01-2.97-35.43,2.84c-1.34,0.68-2.67,1.67-4.08,1.81c-1.81,0.18-4.51,0.3-5.35-0.75c-1.1-1.37-1.24-3.98-0.91-5.91
		c0.47-2.76,2.85-3.78,5.51-4.31c5.87-1.18,11.71-2.57,17.57-3.84c6.63-1.43,13.23-1.33,19.76,0.64c6.53,1.98,13.02,4.12,19.62,5.87
		c7.46,1.98,14.54,0.87,20.97-3.57c5.36-3.7,5.7-9.35,0.93-13.92c-3.61-3.46-8.18-4.44-12.86-4.74c-9.88-0.63-19.5-2.43-28.74-5.99
		c-5.95-2.29-11.98-2.78-18.14-1.15c-4.66,1.23-9.3,2.59-13.95,3.85c-2.09,0.57-4.17,1.19-6.3,1.51c-2.28,0.35-4.46-0.05-5.14-2.74
		c-0.7-2.8-0.25-5.38,2.49-6.93c0.97-0.55,2.22-0.64,3.35-0.88c7.3-1.57,14.65-2.98,21.91-4.75c4.89-1.19,9.46-1.33,14.01,1.22
		c7.71,4.33,16.16,5.94,24.9,6.65c4.45,0.36,8.86,1.44,13.26,2.35c9.02,1.88,15.56,6.27,17.24,16.2c1.18,6.98,11.67,9.38,15.92,7.21
		c9.62-4.91,13.19-19.06,3.78-26.22c-2.65-2.02-5.5-3.78-8.08-5.88c-3.01-2.44-3.68-5.23-1.91-7.3c2.12-2.49,4.68-2.2,7.21-0.7
		c8.79,5.21,16.89,10.97,17.31,22.6c0.02,0.65,0.33,1.29,0.48,1.94c0.98,4.18,0.48,7.89-3.09,10.83c-1.4,1.15-2.59,2.6-3.73,4.03
		c-4.22,5.32-4.42,10.24-0.69,14.99c3.38,4.32,6.86,4.84,13.43,2.08c5.83-2.45,11.62-4.99,17.53-7.24
		c6.47-2.46,10.97-6.46,11.25-13.74c0.29-7.57-1.65-14.22-8.95-18.15c-1.75-0.94-3.61-1.85-5.05-3.18c-2.22-2.07-1.82-4.8,0.61-6.32
		c4.18-2.61,11.55-1.42,13.96,2.74c5.92,10.22,8.92,21.12,6.63,33.04c-0.88,4.56-3.14,7.86-7.66,9.67
		c-10.2,4.08-20.28,8.44-30.48,12.54c-6,2.41-8.64,6.1-8.79,13.05c-0.12,5.82,2.36,9.33,8.19,11.8c4.44,1.87,8.18,0.56,11.43-2.52
		c8.21-7.78,19.19-10.52,28.75-15.85c3.27-1.82,5.79,0,6.46,3.71c0.84,4.65-1.06,7.31-6.46,8.07c-8.48,1.2-15.92,4.53-22.69,9.71
		c-4.85,3.71-7.19,8.38-5.88,14.35c1.35,6.16,2.92,12.3,4.88,18.28c1.43,4.37,1.58,8.42-0.39,12.58c-2,4.21-3.98,8.44-5.84,12.71
		c-2.38,5.45-1.07,10.5,2.3,15.01c1,1.34,2.79,2.52,4.42,2.89c7.59,1.71,13.52-1.81,15.88-9.3c1.1-3.49,1.96-7.06,2.71-10.64
		c0.92-4.4,3.39-6.78,7.81-7.97c3.43-0.93,6.98-2.49,9.7-4.72c4.66-3.82,4.16-10.16-0.77-13.66c-1.98-1.4-4.44-2.21-6.79-2.95
		c-2.21-0.69-4.62-0.74-6.83-1.42c-3.92-1.21-6-5.82-4.38-9.26c1.36-2.88,4.99-3.64,8.68-1.48c5.89,3.44,11.7,7.04,17.48,10.66
		c3.52,2.21,5,5.41,5.07,9.66c0.12,7.95-2.8,13.88-10.12,17.4c-1.2,0.58-2.32,1.31-3.49,1.95c-4.73,2.61-7.95,6.42-9.72,11.57
		c-1.25,3.61-2.8,7.12-4.23,10.67c-1.88,4.65-5.3,7.04-10.35,7.29c-2.49,0.12-4.98,0.47-7.42,0.94c-4.26,0.82-6.58,3.55-7.35,7.78
		c-1.18,6.56,1.79,11.52,8.48,13.06c3.7,0.85,7.58,0.99,11.39,1.2c6.37,0.34,7.35,0.92,9.57,6.75c1.24,3.27,2.35,6.59,3.65,9.84
		c2.36,5.92,2.2,11.93,1.5,18.18c-1.27,11.39-7.76,20.05-14.31,28.65c-1.41,1.86-4.41,2.9-6.87,3.49
		c-5.98,1.44-12.06,2.59-18.15,3.44c-2.51,0.35-5.7,0.48-7.67-0.75c-8.09-5.07-17.77-7.92-23.53-16.38c-1.17-1.72-3-3.02-5.11-1.48
		c-2.09,1.53-2.25,3.86-0.72,5.75c1.96,2.41,4.08,4.91,6.65,6.57c6.56,4.25,13.26,8.36,20.23,11.89c2.74,1.39,6.44,1.81,9.54,1.4
		c7.56-1.01,15-2.9,22.53-4.17c3.56-0.6,6.18-2.27,8.15-5.17c2.53-3.72,5.18-7.36,7.56-11.18c8.84-14.16,12.29-29,5.4-45.09
		c-1.25-2.91-2.12-5.97-3.36-8.88c-1.51-3.54-1.09-6.6,1.02-9.87c4.68-7.28,8.91-14.85,13.56-22.15c2.13-3.35,4.57-6.58,7.34-9.41
		c3.03-3.09,6.89-3.3,8.94-1.16c2.05,2.13,1.29,4.29-1.74,8.31c-5.59,7.43-10.99,15.01-16.22,22.7c-3.41,5-3.64,10.64-1.81,16.3
		c1.33,4.12,2.83,8.19,4.41,12.21c1.72,4.39,1.61,8.62,0.19,13.15c-1.27,4.07-2.04,8.4-2.3,12.66c-0.21,3.53-1.25,6.36-3.32,9.15
		c-3.97,5.34-7.64,10.91-11.47,16.36c-3.09,4.39-3.12,8.99-1.05,13.75c0.73,1.68,1.49,3.35,2.34,4.97
		c6.31,11.95,8.22,24.56,5.49,37.78c-1.3,6.32-0.04,11.85,3.82,16.92c2.92,3.83,4.3,8.22,4.6,12.99c0.22,3.49,0.44,6.98,0.66,10.47
		c0.16,2.59,1.6,4.03,4.11,4.08c2.3,0.05,3.61-2.2,3.21-5.16c-0.51-3.8-0.78-7.65-1.66-11.36c-0.99-4.17-1.77-8.7-4.03-12.17
		c-3.92-6.04-4.89-12.12-3.63-18.99c2.11-11.53,0.06-22.53-4.73-33.11c-1.31-2.88-2.45-5.83-3.72-8.72
		c-1.32-2.98-1.22-5.98,0.52-8.62c3.48-5.28,6.97-10.59,10.99-15.45c1.49-1.8,4.42-3.14,6.8-3.32c7.96-0.6,9.8-1.69,12.22-9.18
		c0.41-1.26,0.71-2.57,0.97-3.87c0.97-4.76,3.74-7.39,8.57-8.53c6.13-1.45,12.16-3.41,18.15-5.41c3.29-1.11,6.1-0.9,8.91,1.18
		c1.73,1.28,3.58,2.7,5.58,3.19c1.39,0.34,3.63-0.34,4.62-1.39c1.58-1.66,0.31-3.48-1.29-4.61c-1.49-1.05-3.13-1.92-4.8-2.65
		c-3.93-1.71-6.02-4.39-5.78-8.9c0.17-3.15-0.25-6.32-0.32-9.48c-0.03-1.15-0.01-2.38,0.36-3.45c0.88-2.55,2.56-4.4,5.49-4.22
		c2.98,0.18,4.37,2.08,4.55,4.97c0.08,1.16,0.43,2.34,0.31,3.48c-0.59,5.54,1.38,10.08,5.08,14.08c3.12,3.38,4.12,7.53,3.86,12.03
		c-0.26,4.53-2.99,7.47-7.58,7.6c-3.31,0.09-6.69-0.08-9.93-0.71c-7.29-1.41-14.3-0.33-21.16,1.93
		c-10.21,3.37-13.13,15.74-5.54,22.72c3.65,3.36,7.7,2.95,11.64,1.13c6.51-3.03,13.36-3.8,20.4-4.15c5.98-0.3,11.94-1.04,17.9-1.69
		c7.19-0.79,11.78-4.74,12.76-11.91c1.1-8.06,1.85-16.19,2.24-24.31c0.13-2.65-0.65-5.89-2.21-7.99c-4.73-6.38-6.44-13.4-6.1-21.12
		c0.18-3.97-1.55-7.07-4.35-9.69c-4.39-4.11-9.47-6.87-15.54-7.2c-4.48-0.24-8.99-0.18-13.47,0.07c-5.25,0.29-9.53,2.78-12.9,6.78
		c-5.31,6.3-8.64,13.28-8.42,21.84c0.13,5.1-2.96,7.83-7.31,7.45c-3.77-0.33-6.63-3.91-5.74-8.41c0.69-3.5,2.27-6.97,4.11-10.07
		c3.83-6.44,8.2-12.55,12.14-18.93c2.49-4.04,5.88-6.19,10.59-6.42c6.82-0.34,13.64-0.79,20.46-1.12
		c6.45-0.31,12.11,1.77,17.07,5.87c2.18,1.81,4.31,3.71,6.65,5.29c9.27,6.25,21.83,0.74,23.72-10.13c0.43-2.48,1.99-4.77,3.03-7.15
		c0,8,0,16,0,24c-5.02,1.03-10.12,1.78-15.05,3.16c-6.09,1.71-7.92,5.65-6.38,12.41c1.57,6.92,5.3,10.05,11.35,9.06
		c3.41-0.55,6.72-1.73,10.08-2.63c0,2.67,0,5.33,0,8c-0.64,0.15-1.29,0.31-1.93,0.46c-9.52,2.25-12.03,5.39-12.1,15.14
		c-0.06,7.62-0.05,15.21-3.24,22.41c-1.68,3.8-0.46,7.07,2.58,9.79c4.23,3.78,9.13,5.12,14.68,4.19c0,3.67,0,7.33,0,11
		c-5.67-2.36-11.87-3.93-16.87-7.28c-6.77-4.55-13.62-5.75-21.32-4.34c-1.96,0.36-3.97,0.46-5.94,0.8
		c-9.67,1.64-19.39,3.06-28.97,5.08c-5.66,1.19-8.62,5.27-8.91,11.19c-0.13,2.65-0.44,5.31-0.88,7.93c-0.4,2.37-1.87,3.98-4.39,4.02
		c-2.73,0.04-4.49-1.63-4.77-4.19c-0.27-2.43-0.05-4.96,0.3-7.4c0.35-2.46,1.31-4.84,1.66-7.3c0.73-5.14-2.56-10.89-7.73-13.4
		c-4.71-2.28-9.16-1.31-13.02,1.98c-5.58,4.76-7.66,10.85-5.69,17.96c1.55,5.61,3.43,11.14,5.4,16.63
		c2.01,5.62,2.61,11.21,1.56,17.16c-1.45,8.22-0.45,16.09,3.65,23.7c2.06,3.83,3.35,8.48,3.53,12.82
		c0.28,6.76-0.63,13.57-1.16,20.35c-0.35,4.47-1.18,8.91-1.31,13.38c-0.17,6.21,3.05,10.13,8.16,10.66
		c5.71,0.59,10.41-2.72,11.6-8.61c1.52-7.51,2.9-15.05,4-22.63c2.01-13.8,1.39-27.27-5.88-39.75c-0.82-1.41-1.33-3.07-1.69-4.68
		c-0.55-2.51,0.14-4.83,2.65-5.81c2.52-0.99,5.02-0.58,6.51,2.05c0.98,1.73,1.79,3.57,2.54,5.41c6.38,15.83,6.76,32.12,3.46,48.63
		c-1.24,6.2-2.85,12.33-4.28,18.5c-1.29,5.54,0.58,9.81,5.23,12.94c11.89,8.01,29.93,1.32,33.44-12.51
		c0.86-3.37,1.22-6.88,1.68-10.35c1.19-8.89,2.86-17.75,3.31-26.68c0.53-10.45-0.07-20.95-0.06-31.43c0.01-4.13-1.29-7.45-4.68-9.95
		c-1.6-1.18-3.33-2.37-4.48-3.94c-0.88-1.2-1.67-3.29-1.19-4.43c0.45-1.08,2.86-2.27,3.99-1.95c4.08,1.17,8.14,2.65,11.91,4.59
		c4.34,2.23,6.07,6.16,4.67,10.95c-3.75,12.84-2.66,25.67-0.64,38.62c0.54,3.45-0.47,7.2-1.08,10.75
		c-1.03,6.03-2.28,12.02-3.47,18.02c-0.8,4.03-0.69,8.61-2.64,11.99c-8.94,15.48-8.66,15.39-25.94,16.61
		c-9.01,0.63-17.38,0.29-24.28-7.2c-3.92-4.25-11.95-2.95-15.27,1.23c-3.9,4.9-3.52,13.43,0.96,17.93
		c6.51,6.54,14.02,10.25,23.68,9.41c10.28-0.89,20.62-1.2,30.93-1.34c2.8-0.04,6.08,0.84,8.34,2.42c6.06,4.26,12.11,8.15,19.67,9.27
		c1.39,0.21,3.54,2.16,3.55,3.31c0.01,1.85-1.01,4.3-2.44,5.42c-2.81,2.2-6.35,2.05-9.46,0.33c-2.45-1.36-4.69-3.14-6.89-4.9
		c-5.47-4.37-11.34-7.56-18.65-7.19c-9.15,0.46-18.3,0.8-27.45,1.26c-3.72,0.19-6.83,1.85-8.88,4.91
		c-6.21,9.27-12.49,18.5-18.29,28.02c-3.8,6.25-2.82,12.93,0.78,19c1.18,1.98,3.42,3.94,5.59,4.62c8.26,2.61,17.13-3.82,17.82-12.35
		c0.29-3.63,0.46-7.4,1.59-10.8c5.07-15.27,20.46-15.77,33.37-10.53c4.2,1.7,6.34,5.06,6.29,9.83c-0.08,7.48,1.5,14.49,6.06,20.71
		c1.32,1.8,2.53,4.31,2.43,6.42c-0.38,7.78-1.13,15.57-2.16,23.29c-0.51,3.88-3.44,5.99-7.28,6.53c-3.96,0.55-7.93,1.2-11.91,1.35
		c-9.48,0.37-19.05,0.08-27.77,4.78c-0.28,0.15-0.64,0.19-0.96,0.26c-4,0.78-6.83-1.75-5.68-5.62c0.6-2.02,2.26-4.38,4.07-5.22
		c2.91-1.36,6.32-2.08,9.55-2.19c7.32-0.26,14.66,0.08,21.99,0.06c4.93-0.02,8.92-2.1,10.73-6.75c2.56-6.61,3.23-13.59-1.2-19.6
		c-4.25-5.77-6.36-11.79-6.39-18.95c-0.03-5.86-3.63-9.03-9.45-9.61c-7.46-0.75-13.28,3.97-13.97,11.74
		c-0.34,3.79-0.08,7.66,0.14,11.48c0.32,5.82-0.16,6.97-5.76,8.75c-5.7,1.81-11.51,3.3-17.33,4.74c-5.03,1.25-8.16,4.17-9.34,9.26
		c-0.64,2.75-1.33,5.52-2.39,8.12c-0.94,2.32-2.94,3.86-5.57,3.22c-2.92-0.71-3.19-3.34-2.7-5.66c0.69-3.24,1.7-6.45,2.94-9.52
		c1.99-4.94,1.86-9.7-0.21-14.55c-1.56-3.67-3.05-7.39-4.33-11.17c-1.74-5.15-1.55-10.23,1.64-14.83
		c4.36-6.28,8.85-12.47,13.33-18.66c1.26-1.75,2.8-3.31,3.98-5.12c3.33-5.11,3.13-8.84-0.5-12.66c-4.37-4.58-9.54-5.67-14.42-3.01
		c-6.23,3.39-10.25,8.82-13.74,14.77c-4.12,7.04-8.28,14.06-12.53,21.02c-0.84,1.37-1.99,3.15-3.33,3.52
		c-6.06,1.65-12.22,1.08-18.15-0.69c-1.18-0.35-2.51-2.92-2.35-4.3c0.15-1.32,1.95-2.9,3.39-3.51c1.59-0.68,3.61-0.58,5.43-0.51
		c7.13,0.27,11.51-3.71,14.55-9.5c1.78-3.38,3.27-6.93,4.56-10.52c1.7-4.71,4.24-8.58,8.72-11.11c3.04-1.72,5.91-3.74,8.8-5.7
		c3.18-2.16,5.28-5.14,5.8-8.97c0.56-4.11,0.98-8.26,1.16-12.4c0.16-3.88-1.28-7.44-4.48-9.59c-7.87-5.28-15.71-10.7-24.05-15.13
		c-7.03-3.73-15.61,1.55-16.39,9.2c-0.89,8.77,4.94,15.52,13.76,15.99c3.15,0.17,6.67-0.02,7.94,3.75c0.76,2.25-2.25,4.72-7.3,5.28
		c-6.88,0.76-10.25,4.88-12,10.96c-0.64,2.24-0.97,4.57-1.63,6.79c-0.76,2.54-1.52,5.12-2.69,7.48c-1.14,2.29-3.27,3.27-5.89,2.57
		c-2.51-0.67-3.58-2.63-3.36-4.92c0.23-2.43,0.85-4.9,1.77-7.16c1.57-3.85,3.52-7.54,5.27-11.32c2.14-4.62,2.17-9.16,0.29-14.01
		c-1.98-5.1-3.39-10.43-4.84-15.72c-1.53-5.56,0.37-10.16,5.4-12.65c5.46-2.7,11.27-4.76,17.06-6.69c3.19-1.06,6.01,0.14,8.55,2.65
		c3.78,3.73,7.94,7.1,12.06,10.47c1.86,1.52,4.2,2.8,6.04,0.09c1.68-2.49,0.2-4.36-1.94-5.83c-2.74-1.88-5.54-3.68-8.16-5.72
		c-4.07-3.17-6.63-6.95-4.6-12.49c0.44-1.19,0.27-2.65,0.22-3.97c-0.43-9.69-7.1-14.08-15.6-9.55c-10.1,5.37-21.37,8.58-30.12,16.5
		c-3.03,2.75-6.31,2.01-8.16-0.88c-1.88-2.95-1.11-6.7,2.09-8.68c1.96-1.21,4.22-1.94,6.35-2.88c9.75-4.3,19.51-8.56,29.23-12.9
		c3.66-1.64,6.3-4.28,7.38-8.29c4.33-16.04,0.73-30.71-8.11-44.26c-1.36-2.08-4.36-4.02-6.78-4.27c-4.21-0.43-8.61,0.19-12.82,0.97
		c-3.51,0.65-6.83,2.44-7.47,6.44c-0.69,4.35,0.58,8.34,4.13,11.18c1.93,1.55,4.17,2.75,6.35,3.95c5.02,2.77,5.98,7.34,5.42,12.41
		c-0.51,4.6-3.82,6.55-7.89,7.99c-5.3,1.88-10.44,4.23-15.65,6.37c-0.61,0.25-1.27,0.79-1.84,0.71c-1.66-0.23-3.92-0.19-4.75-1.22
		c-0.86-1.07-0.89-3.51-0.27-4.91c0.83-1.9,2.69-3.34,3.98-5.07c2.98-4.01,6.77-5.02,11.45-3.45c1.24,0.42,2.8,0.85,3.9,0.44
		c1.51-0.57,3.5-1.72,3.86-3.02c0.57-2.06-0.82-3.81-3.28-4.04c-1.16-0.11-2.33-0.08-3.49-0.15c-5.26-0.27-6.61-1.35-7.86-6.57
		c-0.78-3.24-1.43-6.51-2.1-9.77c-0.91-4.45-3.09-8.03-6.95-10.54c-4.46-2.91-8.8-6.02-13.37-8.75c-5.8-3.46-8.74-3.01-12.89,2.25
		c-2.68,3.39-5.82,4.21-9.68,3.23c-3.23-0.82-6.37-1.93-9.6-2.74c-2.29-0.57-4.5-0.28-5.13,2.48c-0.64,2.79,1.26,3.95,3.58,4.43
		c3.75,0.78,7.57,1.25,11.28,2.16c2.39,0.58,5.02,1.22,6.88,2.69c4.41,3.48,8.47,7.43,12.6,11.26c3.3,3.06,3.54,8.72,0.62,12.21
		c-2.91,3.47-7.86,2.98-9.85-1.11c-0.94-1.93-1.53-4.05-2.12-6.12c-1.28-4.47-4.12-8.06-8.25-9.49c-8.29-2.87-16.74-5.95-25.37-7.01
		c-8.91-1.1-17.39-2.38-25.16-7.11c-4.34-2.64-9.04-3.11-13.93-1.33c-2.97,1.08-5.97,2.2-9.06,2.81c-5.05,1.01-10.17,1.64-15.27,2.4
		c-4.05,0.61-7.89,1.47-9.81,5.78c-2.11,4.75-1.76,9.62,0.25,14.06c0.83,1.84,3.64,3.34,5.83,3.87c2.3,0.55,4.99,0.04,7.38-0.53
		c4.86-1.14,9.64-2.61,14.44-3.98c6.92-1.99,13.75-1.98,20.61,0.47c9.62,3.43,19.53,5.57,29.78,5.94c1,0.04,2,0.12,2.99,0.26
		c2.52,0.35,4.99,1.61,4.76,4.16c-0.14,1.59-2.28,3.55-3.99,4.33c-4.29,1.97-8.83,1.07-13.2-0.14c-6.9-1.9-13.69-4.33-20.69-5.73
		c-5.3-1.06-10.95-1.64-16.27-1.01c-7.9,0.95-15.66,3.11-23.45,4.87c-5.55,1.25-8.33,3.93-8.72,9.45
		c-0.25,3.56,0.22,7.35,1.22,10.78c1.27,4.36,4.66,5.91,9.07,4.5c4.11-1.31,8.11-3.02,12.08-4.72c6.75-2.89,13.82-4.46,20.96-2.72
		c7.22,1.76,14.45,3.98,21.18,7.07c6.64,3.05,12.65,3.51,18.99-0.12c2.31-1.32,4.74-2.44,7.17-3.53c2.73-1.23,5.47-2.46,8.29-3.44
		c8.82-3.06,23,4.1,20,17.33c-0.81,3.57-1.67,7.12-2.52,10.68c-1.68,7.04-0.75,9.64,5.1,13.56c2.9,1.94,5.94,3.68,8.93,5.5
		c3.21,1.96,5.76,4.41,6.85,8.21c3.86,13.53,6.64,26.97-2.11,39.83c-0.37,0.54-0.5,1.23-0.76,1.84c-1.93,4.42-2.11,8.97,0.71,12.89
		c5.67,7.88,6.59,15.91,2.7,24.86c-2.28,5.25-0.39,10.02,3.33,14.24c5.43,6.16,12.27,9.71,20.24,10.95
		c8.87,1.38,11.87,5.75,11.84,15.49c-0.01,3.11-0.72,6.32-1.69,9.29c-4.86,15.04-19.77,20.38-33.26,11.97
		c-2.39-1.49-4.65-3.23-6.84-5.02c-4.78-3.9-9.48-7.86-15.74-9.32c-2.49-0.58-4.45-2.41-3.89-5.02c0.52-2.41,1.63-5.16,3.4-6.72
		c2.19-1.93,4.68-0.24,6.61,1.57c0.85,0.8,1.58,1.74,2.5,2.44c6.77,5.1,13.3,10.57,20.45,15.07c4.34,2.73,9.68,2.63,14.12-0.7
		c4.5-3.38,6.33-8.19,5.41-13.68c-0.91-5.47-5.34-7.41-10.1-8.3c-8.76-1.65-14.84-6.96-20.2-13.64
		c-7.68-9.58-22.08-10.63-30.66-1.96c-4.31,4.35-7.9,9.45-11.43,14.48c-1.36,1.94-2.03,4.57-2.4,6.98
		c-2.25,14.46-6.32,28.44-10.74,42.34c-7.67,0-15.33,0-23,0c-0.79-5.9,0.81-11.24,4.13-16.05c1.44-2.08,3.53-4.14,6.25-2.38
		c2.53,1.64,2.03,4.36,0.92,6.75c-0.91,1.95-2.52,3.65-3.04,5.66c-0.32,1.24,0.43,3.32,1.43,4.15c0.73,0.61,2.84,0.17,3.96-0.46
		c1.04-0.58,1.94-1.94,2.28-3.14c1.03-3.65,2.14-7.34,2.5-11.08c0.34-3.56,1.21-6.68,2.92-9.87c1.68-3.14,2.82-6.76,3.3-10.29
		c0.58-4.27-1.48-7.32-5.23-7.88c-3.54-0.53-7.6-1.06-10.78,0.13c-10.65,3.99-20.12,9.74-24.22,21.35c-0.77,2.19-1.84,4.31-2.4,6.55
		c-1.86,7.5-4.71,14.13-13,16.55c-7,0-14,0-21,0c-0.51-4.01,1.68-5.82,5.28-6.47c2.46-0.44,4.91-0.9,7.39-1.24
		c5.95-0.81,10.14-4.03,12.69-9.36c1.58-3.3,3.42-6.59,4.27-10.09c2.26-9.35,7.76-15.05,16.18-20.01
		c8.55-5.05,16.43-8.09,26.21-5.84c5.27,1.22,9.46-1.18,12.57-5.36c2.88-3.87,5.7-7.79,8.32-11.84c2.95-4.56,6.97-7.03,12.38-7.28
		c3.99-0.18,8.02-0.1,11.97-0.61c2.37-0.3,5.05-0.98,6.84-2.43c4.5-3.64,5.11-12.38,1.76-18.04c-3.13-5.28-6.41-6-13.81-3.92
		c-7.5,2.11-15.09,4.07-22.75,5.46c-6.99,1.27-11.5,4.71-13.49,11.57c-0.74,2.54-1.71,5.06-2.93,7.41c-1.14,2.2-3.29,3.94-5.68,2.71
		c-1.35-0.69-2.34-3.1-2.49-4.82c-0.18-2.05,0.39-4.34,1.22-6.28c1.56-3.66,3.6-7.12,5.32-10.72c2.68-5.57,7.01-7.94,13.2-7.94
		c10.31,0,20.06-2.95,29.51-6.81c2.07-0.84,4.36-2.2,5.56-3.98c6.52-9.66,10.24-20.23,7.99-32.05c-2.5-13.18-12.14-19.23-23.9-22.79
		c-3.37-1.02-7.19-1.32-8.06-5.55c-0.81-3.96,2.21-6.01,4.88-8c4.02-3,6.02-7.03,6.4-11.92c0.57-7.47-4.41-12.02-11.54-9.89
		c-4.72,1.41-9.1,3.97-13.6,6.1c-5.76,2.73-8.42,7.26-7.91,13.68c0.18,2.32,0.19,4.68,0,6.99c-0.8,10,2.67,18.32,9.89,25.1
		c3.13,2.95,3.9,6.38,3.14,10.43c-0.46,2.45-1.26,5.02-0.88,7.37c0.24,1.47,2.21,3.24,3.75,3.67c0.83,0.23,3.02-1.87,3.43-3.26
		c0.58-1.97,0-4.27,0.09-6.42c0.12-2.88,0.32-5.84,3.96-6.6c3.04-0.64,6.72,1.61,7.96,4.74c1.84,4.64-0.04,11.36-4.79,14.03
		c-3.68,2.06-7.91,3.68-12.06,4.22c-7.8,1-9.65-0.92-10.48-8.86c-0.19-1.82-0.46-3.65-0.49-5.47c-0.09-4.65-1.55-8.81-4.21-12.59
		c-1.44-2.04-2.77-4.16-4.21-6.2c-2.58-3.65-3.82-7.6-3.69-12.17c0.18-6.32-0.04-12.66-0.2-18.98c-0.08-3.3-1.1-6.43-4.02-8.21
		c-11.93-7.27-24.5-11.35-38.49-6.5c-4.4,1.53-8.66,3.45-13.07,4.96c-5.46,1.88-9,5.42-10.68,10.96
		c-1.62,5.34-4.26,10.07-8.34,14.01c-1.53,1.48-2.8,3.33-3.82,5.21c-2.35,4.32-0.9,10.67,3.1,14.57c3.35,3.26,7.75,3.88,12.42,1.44
		c5.96-3.11,10.42-7.69,12.88-14.04c1.02-2.64,1.83-5.37,2.98-7.95c3.24-7.32,11.4-11.57,19.28-10.16c4.41,0.79,6.9,3.36,6.87,7.83
		c-0.02,2.96-0.43,6.01-1.23,8.87c-1.78,6.34-0.57,11.91,3.72,16.76c6.3,7.12,9.16,15.54,10.9,24.77c1.3,6.92,0.77,12.99-3.94,18.2
		c-8.26,9.14-11.13,19.81-9.78,31.84c0.54,4.85-1.54,8.37-5.65,10.81c-2,1.19-3.99,2.42-6.06,3.48c-4.15,2.12-8.22,2.06-12.39-0.26
		c-5.49-3.04-10.09-6.87-13.65-12.15c-5.23-7.76-15.18-9.24-22.84-3.81c-2.04,1.44-3.23,2.93-2.75,5.78
		c1.82,10.82,8.44,17.77,17.78,22.57c2.95,1.52,6.21,2.44,9.16,3.96c4.32,2.22,5.35,4.55,4.68,9.37
		c-0.84,6.11-4.77,9.48-11.81,11.05c-3.97,0.88-8.84,1.58-11.4,4.21c-6.3,6.48-13.74,10.31-22.02,13.12
		c-1.88,0.64-3.71,1.53-5.41,2.57c-7.81,4.76-15.83,2.54-23.71,0.5c-1.32-0.34-2.9-2.96-2.85-4.46c0.06-1.54,1.7-3.49,3.18-4.36
		c1.19-0.7,3.17-0.08,4.8-0.02c4.46,0.17,9.16,1.37,13.32,0.35c10.95-2.68,21.26-7,27.94-16.95c2.21-3.28,5.26-4.34,9.08-3.79
		c2.46,0.35,4.95,0.64,7.44,0.72c2.27,0.07,4-1.03,3.92-3.5c-0.08-2.32-1.54-3.53-3.95-3.59c-2.66-0.07-5.32-0.43-7.98-0.37
		c-3.58,0.08-5.86-1.44-7.57-4.58c-1.83-3.35-4.32-6.33-6.2-9.65c-2.12-3.74-4.72-7.5-5.6-11.58c-1.73-8.01-5.88-13.57-13.21-16.99
		c-1.65-0.77-3.18-1.81-4.78-2.71c-6.32-3.59-12.57-3.16-18.3,1.01c-3.18,2.32-5.97,5.27-8.58,8.26c-2.99,3.42-3.6,7.67-1.62,11.7
		c2.63,5.35,5.45,10.69,8.86,15.56c3.9,5.57,8.89,6.77,15.45,4.78c0.95-0.29,1.84-0.81,2.79-1.09c3.59-1.06,6.97,0.7,7.95,4.08
		c0.84,2.92-0.85,5.63-4.99,5.93c-6.25,0.45-12.58,0.19-18.85-0.23c-1.76-0.12-3.89-1.47-5.03-2.9c-3.38-4.27-6.56-8.73-9.42-13.37
		c-1.64-2.66-2.31-5.89-3.75-8.69c-2.31-4.47-4.77-5.55-9.83-4.84c-5.2,0.73-9.3,3.71-9.71,7.98c-0.88,9.27,0.29,17.98,8.32,24.36
		c2.46,1.95,4.84,4.14,6.75,6.61c3.23,4.16,1.8,8.59-0.34,12.69c-1.94,3.73-5.47,4.92-9.37,4.06c-3.71-0.81-7.39-1.98-10.87-3.49
		c-4.49-1.95-8.94-3.4-13.94-3.23c-8.97,0.3-17.96,0.37-26.94,0.32c-3.9-0.02-7.14,1.15-10.02,3.7c-4.87,4.3-9.8,8.53-14.66,12.84
		c-0.54,0.48-0.76,1.33-1.13,2.01c-8,0-16,0-24,0c5.36-1.07,10.8-1.79,15.23-5.53c5.46-4.61,11.15-8.96,16.58-13.6
		c6.2-5.29,6.93-9.56,2.94-16.63c-1.21-2.15-2.72-4.21-4.44-5.97c-4.29-4.37-8.33-4.3-12.35,0.34c-2.71,3.13-5.03,6.61-7.41,10
		c-3.81,5.43-9.1,8.68-15.57,8.46c-8.91-0.31-17.78-1.97-26.69-2.41c-7.15-0.35-12.52-2.03-14.18-10.06
		c-0.57-2.73-2.84-4.61-6.1-2.61c0-2.67,0-5.33,0-8c4.55-0.56,7.83,1.89,11.18,4.47c3.26,2.5,6.51,5.76,10.27,6.69
		c7.17,1.77,14.68,2.37,22.09,2.99c4.53,0.38,8.43-1.73,11.47-5.1c3.89-4.32,7.77-8.67,11.47-13.15c4.78-5.8,4.62-17.41-0.21-23.25
		c-3.14-3.8-7.34-5.18-12.07-4.34c-4.34,0.77-6.1,4.26-7.14,8.12c-0.52,1.92-0.83,3.9-1.24,5.85c-1.81,8.52-6.73,11.61-14.89,8.37
		c-5.18-2.05-10.14-5.01-14.68-8.28C11.23,496.74,6.14,494.77,0,496c0-2.67,0-5.33,0-8c5.02-1.71,7.39-5.58,9.26-10.3
		c1.81-4.57,3.77-9.41,6.94-13.03c5.91-6.75,6.94-14.02,4.96-22.27C18.64,431.87,10.62,427.52,0,431c0-3,0-6,0-9
		c5.65,0.35,11.32,0.57,16.95,1.09c6.18,0.56,8.23,2.3,9.56,8.3c1.37,6.17,2.12,12.49,3.65,18.62c1.86,7.41-0.36,13.15-5.36,18.67
		c-3.28,3.63-5.87,8.07-7.99,12.51c-1.67,3.5-1.89,7.79,1.4,10.68c2.94,2.59,6.31,4.98,9.89,6.47c5.27,2.19,8.62,0.45,10.67-4.84
		c1.38-3.56,2.23-7.33,3.52-10.93c1.86-5.15,4.15-6.62,9.5-5.85c4.61,0.67,9.15,1.79,13.73,2.63c5.35,0.98,8.56,4.1,9.71,9.41
		c0.92,4.23,1.64,8.53,2.97,12.63c1.06,3.25,2.27,6.86,4.55,9.21c5.51,5.69,10.44,11.57,13.35,19.06c1.76,4.52,5.26,7.48,10.34,7.32
		c7.78-0.25,15.63-0.36,23.28-1.58c4.77-0.76,8.72-0.92,12.59,2.27c2.43,2,5.19,3.62,7.88,5.28c2.13,1.31,4.46,2.87,6.66,0.24
		c1.65-1.98,0.58-4.21-2.81-6.26c-3.42-2.07-7.01-3.89-10.22-6.25c-1.41-1.04-2.77-3.07-2.91-4.76c-0.74-8.79-1.1-17.61-1.57-26.42
		c-0.22-4.03,1.66-6.72,5.47-7.93c3.17-1,6.37-1.96,9.61-2.66c6.52-1.41,11.87-4.28,16.58-9.37c5.04-5.44,11.26-9.8,17.08-14.49
		c3.64-2.94,7.59-2.94,11.64-0.61c5.49,3.15,11.05,6.17,16.54,9.31c4.25,2.43,8.57,2.66,13.45,1.94c8.01-1.18,16.16-1.64,24.26-1.93
		c4.46-0.16,5.52,1.38,6.95,5.7c1.02,3.1,2.11,6.39,4.06,8.91c3.28,4.23,8.89,5.34,13.03,3.4c4.02-1.88,6.25-6.39,5.65-11.8
		c-0.26-2.31-0.7-4.62-1.32-6.86c-1.17-4.23-0.28-7.85,2.58-11.14c2.29-2.64,4.48-5.38,6.65-8.11c4.77-6,6.07-12.78,4.58-20.24
		c-1.81-9.07-6.47-16.55-13.6-22.09c-4.84-3.76-4.97-7.8-3.12-12.68c0.76-2.01,1.95-3.85,2.94-5.77c0.68-1.33,1.65-2.61,1.9-4.01
		c0.2-1.13-0.11-3.04-0.86-3.49c-1.08-0.65-2.93-0.69-4.15-0.23c-1.07,0.41-2.06,1.76-2.52,2.92c-1.76,4.47-3.24,9.05-4.91,13.56
		c-0.74,1.98-1.14,4.68-2.63,5.68c-6.75,4.57-13.6,9.08-20.84,12.77c-6.61,3.37-11.21,1.75-15.61-4.28
		c-2.26-3.09-4.12-6.46-6.37-9.56c-4.38-6.02-3.72-11.71,0.64-17.41c3.13-4.1,6.17-8.28,9.07-12.55c4.07-6,5.41-12.34,2.5-19.39
		c-2.65-6.43-3.72-13.13-1.72-20.03c1.72-5.95,1.36-11.79-0.56-17.68c-2.03-6.21-1.93-12.41,0.82-18.53
		c1.91-4.25,1.37-8.55-1.05-12.44c-2.14-3.44-5.21-5.7-9.55-5.09c-11.01,1.55-15.62,8.08-14.53,19.06
		c1.25,12.57,1.89,25.21,2.7,37.82c0.33,5.15-0.11,10.41,0.77,15.45c1.15,6.55-0.47,11.95-3.85,17.49
		c-4.4,7.21-8.28,14.77-11.91,22.41c-1.47,3.1-3.68,4.31-6.53,5.51c-5.18,2.18-10.34,4.49-15.21,7.27
		c-3.37,1.92-4.28,5.28-2.48,6.99c2.86,2.73,4.63-0.23,6.84-1.48c4.15-2.35,8.36-4.64,12.74-6.5c2.61-1.11,5.33-0.41,7.09,2.13
		c4.64,6.68,9.3,13.35,13.77,20.14c1.64,2.49,2.62,5.4,4.2,7.94c2.44,3.93,6.04,6.08,10.78,6.08c3.5,0,7-0.03,10.5-0.02
		c9.63,0.02,19.14-0.12,25.62-9.14c1.32-1.83,3.98-2.77,5.7-0.9c1.22,1.33,1.96,3.98,1.58,5.75c-1.46,6.79-8.67,12.24-15.63,12.48
		c-8.49,0.29-16.97,0.63-25.45,1.01c-13.58,0.6-19.38-3.47-23.38-16.41c-1.79-5.78-4.18-11.22-8.67-15.53
		c-3.21-3.09-6.87-4.01-11.03-2.61c-8.35,2.81-14.26,7.82-15.14,17.24c-0.2,2.15-0.72,4.28-0.85,6.44
		c-0.28,4.44-2.43,7.71-5.56,10.76c-8.72,8.49-18.35,15.08-30.24,18.7c-6.26,1.91-11.64,2.99-17.59-0.43
		c-3.43-1.97-7.32-2.09-10.98,0.1c-7.7,4.59-8.28,14.68-0.21,19.78c7.43,4.7,9.24,11.25,9.7,18.99c0.14,2.44,0.06,5.05-2.69,5.79
		c-2.89,0.77-4.84-1.29-5.68-3.74c-2.22-6.43-5.92-11.85-10.27-16.97c-1.37-1.62-2.34-3.65-3.18-5.63
		c-4.85-11.38-3.7-15.13,5.46-23.51c5.48-5.01,11.28-6.88,18.26-4.32c8.64,3.17,16.79,1.48,24.61-2.47
		c9.96-5.02,18.04-11.71,21.13-23.24c2.25-8.39,2.54-16.78,1.74-25.27c-0.55-5.87,1.8-9.89,7.16-11.67
		c11.24-3.73,18.42-11.48,23.23-21.93c1.25-2.71,3.29-5.11,4.27-7.89c1.31-3.7,2.6-7.62,2.74-11.48
		c0.64-17.32,0.16-34.62-1.98-51.85c-1.21-9.77-2.95-11.66-12.63-13.76c-5.16-1.12-10.35-2.59-15.17-4.69
		c-4.7-2.05-9.33-3.41-14.45-3.14c-8.55,0.45-16.93-0.39-25.14-3.09c-9.73-3.2-19.8-2.1-29.76-1.66c-2.07,0.09-4.45,0.78-6.08,2
		c-7.6,5.67-15.07,11.51-22.4,17.53c-2.9,2.39-3.14,5.77-1.49,9.13c2.36,4.81,6.06,8.38,10.87,10.62c4.76,2.22,8.74,1.14,11.88-3.11
		c2.08-2.81,3.85-5.84,5.79-8.75c2.07-3.1,4.92-5.16,8.68-5.08c5.81,0.13,11.63,0.4,17.4,1.06c6.77,0.77,13.46,2.5,20.24,2.94
		c8.23,0.54,16.11,2.18,23.93,4.68c4.78,1.53,7.4,4.37,7.62,9.26c0.46,9.97,1.19,19.95,1.06,29.92
		c-0.21,15.96-9.11,26.31-23.03,32.71c-2.72,1.25-6.4,2.13-9.13,1.37c-9.04-2.55-17.48-3.35-25.76,2.43
		c-2.64,1.84-5.26-0.28-5.1-3.63c0.07-1.43,0.64-2.94,1.33-4.23c2.69-5.09,9.41-8.07,15.39-6.81c3.09,0.65,6.11,1.67,9.19,2.37
		c6.96,1.59,13.17,0.11,18.64-4.58c5.86-5.02,9.43-11.31,9.85-18.98c0.37-6.64,0.34-13.34-0.12-19.97
		c-0.64-9.37-3.65-12.8-12.94-14.29c-13.14-2.1-26.37-3.72-39.58-5.38c-5.17-0.65-9.5,1.31-12.75,5.42c-2.38,3-4.55,6.17-6.98,9.14
		c-5.54,6.78-8.62,7.22-16.28,2.78c-6.7-3.89-12.76-8.44-17.09-15.04c-2.7-4.12-6.51-6.84-11.55-6.87
		c-8.65-0.04-17.31,0.13-25.95,0.44c-6.25,0.22-11.16,3.1-14.47,8.48C13.9,321.7,7.78,325.58,0,327c0-3,0-6,0-9
		c5.51-0.15,8.68-3.76,11.09-8.02c0.88-1.56,1.32-4.16,0.63-5.68C9.34,299.11,5.84,294.76,0,293z"/>
	<path class="st2" d="M450,0c-3.57,5.58-4.06,11.4-1.81,17.64c1.92,5.32,3.35,10.82,5.23,16.16c1.72,4.86,2.01,9.72,1.01,14.74
		c-1.54,7.75-0.92,15.23,2.98,22.3c5.72,10.37,5.28,21.41,3.46,32.62c-0.82,5.08-1.72,10.2-1.91,15.33
		c-0.24,6.43,3.17,10.41,8.53,10.95c5.42,0.55,10.23-2.98,11.43-8.92c2.93-14.52,6.52-29.03,4.18-44.02
		c-0.66-4.22-2.19-8.32-3.57-12.39c-1.17-3.46-2.79-6.76-4.03-10.2c-0.91-2.51-0.17-4.75,2.3-5.89c2.55-1.17,4.9-0.48,6.64,1.8
		c0.5,0.65,0.94,1.39,1.24,2.16c3.51,8.85,6.32,17.79,6.6,27.51c0.36,12.63-1.22,24.91-4.57,37.04c-0.58,2.08-1.08,4.2-1.43,6.33
		c-1.11,6.67,1.13,10.91,7.16,13.77c13.6,6.44,29.05-0.68,31.58-15.4c2.05-11.93,5.49-23.7,5.04-36.02
		c-0.37-10.13-0.56-20.28-0.42-30.42c0.07-4.83-1.58-8.32-5.4-11.09c-1.6-1.16-3.16-2.54-4.28-4.13c-1.88-2.66-0.79-4.85,2.37-5.37
		c5.3-0.87,15.7,4.61,17.59,9.53c0.56,1.45,0.64,3.34,0.25,4.84c-3.47,13.34-3.3,26.66-0.63,40.12c0.58,2.94,0.16,6.47-0.93,9.29
		c-2.76,7.13-3.99,14.45-3.92,21.99c0.04,4.02-1.47,7.28-3.1,10.8c-4.9,10.58-12.75,15.79-24.49,15c-2.48-0.17-5-0.04-7.49,0.17
		c-6.21,0.52-11.26-1.48-15.77-5.88c-5.1-4.97-11.93-5.19-16.17-1.18c-4.33,4.09-5.22,13.41-0.89,17.88
		c5.55,5.75,11.64,10.84,20.68,10.28c11.63-0.72,23.3-0.83,34.94-1.36c3.36-0.15,6.19,0.71,8.79,2.78c5.52,4.43,11.46,8,18.69,8.9
		c2.28,0.28,4.15,1.26,4.24,4.04c0.1,2.72-1.27,4.35-3.63,5.38c-3.49,1.52-6.85,1.29-9.96-0.91c-2.72-1.93-5.32-4.01-7.99-6
		c-4.82-3.61-10.17-5.64-16.27-5.37c-8.65,0.38-17.3,0.76-25.95,1.18c-5.21,0.25-9.06,2.69-11.89,7.13
		c-5.19,8.14-10.63,16.13-15.89,24.23c-4.09,6.31-4.05,12.83-0.72,19.46c2.51,5.01,5.85,6.78,11.37,5.99
		c9.01-1.28,12.3-4.94,12.87-14.11c0.15-2.48,0.18-5.09,0.97-7.39c3.68-10.73,9.3-15.48,19.53-15.1c5.2,0.2,10.3,0.22,15,2.92
		c3.47,1.99,5.57,4.83,5.56,8.84c-0.02,8.05,1.75,15.43,6.61,22.09c1.37,1.88,2.15,4.71,2.05,7.06c-0.29,6.97-0.99,13.93-1.83,20.85
		c-0.55,4.51-3.46,7.18-7.94,7.73c-5.78,0.71-11.58,1.51-17.39,1.59c-7.1,0.09-13.89,0.93-20.41,3.95c-4.28,1.99-6.88,1.3-8.14-1.51
		c-1.28-2.86,0.05-6.67,3.68-8.28c3.12-1.38,6.64-2.34,10.03-2.5c5.47-0.27,10.98,0.36,16.47,0.43c2.64,0.03,5.35-0.04,7.92-0.6
		c4.78-1.04,7.98-4,9.08-8.9c1.57-6.97,1.2-13.75-3.56-19.43c-3.45-4.11-4.8-8.63-4.73-13.81c0.11-8.7-3.31-12.06-10.91-12.38
		c-7.4-0.31-12.57,4.95-12.89,12.93c-0.15,3.65,0.12,7.32,0.33,10.98c0.26,4.58-0.35,6.11-4.66,7.61
		c-5.02,1.75-10.14,3.4-15.35,4.35c-7.68,1.4-12.3,5.34-13.39,13.22c-0.25,1.79-0.78,3.62-1.58,5.23c-1.11,2.25-3.03,3.71-5.69,2.88
		c-2.57-0.8-2.96-3.12-2.53-5.33c0.54-2.76,1.25-5.56,2.36-8.14c2.86-6.6,2.46-12.93-0.81-19.24c-0.99-1.91-1.77-3.95-2.53-5.98
		c-2.44-6.48-2.3-12.68,1.99-18.49c4.35-5.88,8.58-11.84,12.9-17.75c0.69-0.94,1.56-1.74,2.27-2.66c5.7-7.42,4.53-13.04-3.54-17.62
		c-3.77-2.14-7.32-1.75-10.82,0.53c-5.4,3.53-9.61,8.11-12.81,13.75c-4.19,7.38-8.72,14.57-13.01,21.89
		c-1.69,2.88-3.92,4.25-7.37,3.93c-3.48-0.32-7-0.1-10.48-0.36c-1.43-0.1-3.2-0.45-4.11-1.38c-1.01-1.03-1.86-2.98-1.59-4.28
		c0.25-1.24,1.88-2.71,3.19-3.09c2.19-0.64,4.61-0.58,6.94-0.66c5.1-0.16,9.02-2.47,11.5-6.79c2.14-3.73,4.14-7.63,5.57-11.67
		c2.1-5.92,5.3-10.71,11.05-13.54c0.45-0.22,0.82-0.59,1.27-0.79c10.4-4.62,12.92-13.43,12.96-23.78
		c0.02-5.72-2.24-10.06-6.86-13.08c-6.67-4.37-13.42-8.64-20.31-12.65c-4.59-2.67-9.32-2.13-13.63,0.99
		c-4.24,3.07-4.71,7.39-3.72,12.09c1.73,8.2,5.26,11.16,13.76,11.58c4.8,0.24,7.72,1.79,7.43,4.28c-0.44,3.87-3.81,4.47-6.72,4.69
		c-7.32,0.54-10.99,4.81-12.68,11.42c-0.78,3.06-1.47,6.15-2.31,9.2c-0.44,1.59-0.93,3.22-1.73,4.65c-1.29,2.28-3.72,3.46-5.93,2.41
		c-1.59-0.76-3.32-3.05-3.4-4.73c-0.12-2.49,0.95-5.13,1.92-7.55c1.54-3.86,3.36-7.61,5.14-11.36c2.14-4.51,1.88-8.91,0.13-13.53
		c-1.88-4.97-3.43-10.08-4.82-15.21c-1.59-5.9,0.37-10.72,5.82-13.44c5.03-2.5,10.31-4.58,15.64-6.37c3.71-1.25,6.99-0.06,9.9,2.93
		c3.59,3.68,7.73,6.83,11.59,10.25c2.06,1.83,4.43,2.33,6.08,0.06c1.64-2.25,0.4-4.34-1.82-5.89c-3.41-2.37-6.83-4.74-10.04-7.36
		c-2.9-2.36-4.12-5.32-3.06-9.3c1.13-4.26,0.85-8.59-1.65-12.53c-2.67-4.21-5.39-5.5-10.12-3.82c-3.9,1.38-7.53,3.51-11.32,5.21
		c-7.75,3.47-15.58,6.7-22.07,12.5c-2.9,2.59-6.02,2.13-7.92-0.3c-2.07-2.64-1.64-6.79,1.15-8.95c1.29-1,2.9-1.61,4.42-2.26
		c9.96-4.24,19.9-8.52,29.91-12.61c5.82-2.38,8.67-6.66,9.98-12.68c3.18-14.62-0.86-27.69-7.95-40.19c-2.04-3.6-5.16-5.77-9.4-5.44
		c-4.11,0.31-8.38,0.45-12.24,1.71c-7.08,2.32-8.89,9.33-4.02,15.11c1.86,2.21,4.56,3.85,7.14,5.28c4.2,2.33,6.34,5.74,6.6,10.44
		c0.27,4.91-1.49,7.92-6.02,9.85c-6.26,2.66-12.52,5.33-18.91,7.64c-1.56,0.56-4.06,0.3-5.38-0.64c-2.08-1.49-1.48-3.97,0-5.78
		c2.09-2.57,4.09-5.49,6.79-7.2c1.94-1.23,4.98-0.9,7.53-0.95c1.79-0.04,3.71,0.92,5.37,0.54c1.3-0.29,3.3-2.07,3.2-2.97
		c-0.17-1.38-1.8-2.65-2.98-3.8c-0.38-0.37-1.28-0.18-1.94-0.26c-8.36-0.91-9.08-0.87-10.1-9.37c-1.26-10.46-6.47-17.48-15.43-22.31
		c-2.93-1.58-5.63-3.6-8.62-5.03c-4.4-2.1-7.47-1.66-10.07,2.32c-3.37,5.16-7.63,5.17-12.61,3.61c-2.22-0.69-4.41-1.56-6.67-2.09
		c-3.59-0.85-5.68,0.09-5.98,2.56c-0.38,3.15,1.83,3.91,4.29,4.39c4.41,0.86,8.86,1.58,13.21,2.69c1.84,0.47,3.68,1.51,5.15,2.73
		c3.68,3.08,7.07,6.5,10.72,9.62c4.04,3.45,4.91,8.85,1.85,12.78c-2.99,3.85-7.99,3.42-10.16-0.93c-0.66-1.33-1.05-2.8-1.42-4.25
		c-1.65-6.33-5.72-10.5-11.73-12.64c-8.63-3.08-17.31-5.99-26.66-6.07c-6.62-0.05-12.88-1.84-18.51-5.34
		c-6.12-3.82-12.22-4.02-19.1-1.89c-6.95,2.15-14.24,3.24-21.44,4.47c-10.28,1.75-14.93,11.73-9.14,20.54
		c1.01,1.54,3.31,2.86,5.16,3.07c2.9,0.33,5.96-0.15,8.88-0.69c2.93-0.54,5.84-1.39,8.65-2.41c9.12-3.32,18.11-3.57,27.33-0.13
		c9.11,3.39,18.67,4.88,28.38,5.32c3.13,0.14,6.2,0.63,6.98,4.31c0.49,2.3-2.17,4.58-6.48,4.92c-3.58,0.28-7.34,0.07-10.83-0.74
		c-6.48-1.5-12.82-3.6-19.22-5.45c-8.04-2.32-16.03-2.36-24.14-0.03c-4.94,1.42-10.06,2.23-15.12,3.22
		c-4.4,0.86-8.53,2.09-9.99,7.03c-1.67,5.67-1.7,11.25,1.95,16.23c1.72,2.35,4.31,3.1,7.15,2.09c3.14-1.11,6.38-2.05,9.33-3.55
		c12.86-6.54,25.69-5.78,38.57-0.25c3.21,1.38,6.43,2.76,9.56,4.31c4.69,2.32,9.27,2.17,13.92-0.1c5.08-2.48,10.23-4.84,15.34-7.28
		c4.52-2.17,9.02-1.85,13.55-0.02c6.16,2.49,9.63,7.4,9.1,13.98c-0.32,3.94-1.4,7.84-2.42,11.69c-2.22,8.44-1.36,11.07,5.91,16.01
		c2.48,1.68,5.05,3.24,7.67,4.69c4.23,2.33,6.72,5.78,7.59,10.54c0.78,4.26,1.66,8.5,2.72,12.7c1.45,5.75,0.85,11.22-1.72,16.52
		c-0.58,1.2-1.01,2.48-1.7,3.61c-5.23,8.58-5.24,16.88,0.91,25.1c2.9,3.87,3.16,8.31,1.55,12.85c-0.22,0.63-0.43,1.26-0.63,1.9
		c-3.88,12.23-1.04,19.58,10.53,25.41c4.25,2.14,9.05,3.26,13.67,4.56c6.66,1.87,9.5,4.61,9.64,11.47c0.09,4.58-0.4,9.36-1.68,13.74
		c-4.51,15.45-21.24,17.99-31.54,11.89c-2.71-1.61-5.4-3.36-7.77-5.43c-4.82-4.21-9.93-7.71-16.1-9.76
		c-4.74-1.58-5.58-7.44-1.88-10.84c2.46-2.26,5.24-1.69,8.79,1.3c6.23,5.24,12.39,10.62,19.05,15.28c2.81,1.97,6.77,3.12,10.24,3.17
		c10,0.16,14.43-10.24,11.73-17.76c-0.81-2.24-3.74-4.76-6.08-5.22c-11.41-2.22-19.12-9.28-26.26-17.78
		c-5.75-6.85-19.99-6.84-26.79-0.03c-4.79,4.8-9.05,10.25-12.86,15.87c-1.74,2.58-1.95,6.25-2.64,9.47
		c-0.59,2.76-0.67,5.63-1.34,8.37c-1.8,7.42-3.92,14.77-5.66,22.2c-1.07,4.58-3.19,8.55-6.8,11.34c-2.09,1.62-5.01,2.87-7.62,2.98
		c-10.01,0.43-14.09-5.17-10.96-14.64c0.83-2.5,1.95-4.98,3.39-7.16c1.33-2.01,3.57-3.45,6.02-2.1c2.57,1.41,1.93,4.08,1.24,6.28
		c-0.48,1.54-1.66,2.86-2.53,4.27c-1.32,2.15-2.15,4.44,0.38,6.16c2.67,1.81,4.76-0.02,5.59-2.21c1.52-3.97,2.81-8.14,3.37-12.34
		c0.48-3.52,1.22-6.67,2.89-9.88c1.72-3.29,2.78-7.13,3.2-10.84c0.52-4.66-1.79-7.21-6.5-7.8c-2.93-0.37-6.25-0.78-8.89,0.2
		c-9.83,3.64-18.94,8.57-23.43,18.85c-2.19,5.02-4.03,10.22-5.7,15.45c-1.56,4.86-4.41,8.04-9.49,9.22
		c-4.21,0.98-8.35,2.31-12.56,3.27c-1.92,0.44-4.15,0.92-5.88,0.33c-1.59-0.54-3.4-2.31-3.78-3.86c-0.29-1.16,1.23-3.35,2.52-4.16
		c1.59-1,3.77-1.35,5.72-1.45c9.61-0.5,15.86-5.21,18.9-14.35c1.42-4.26,3.26-8.38,4.67-12.65c1.5-4.53,4.25-7.74,8.5-9.94
		c3.83-1.99,7.56-4.24,11.13-6.66c4.23-2.87,8.8-4.41,13.71-3.05c10.91,3.03,18.43-0.97,23.61-10.52c0.24-0.44,0.64-0.79,0.84-1.24
		c4.31-9.69,12.1-13.13,22.23-12.45c1.16,0.08,2.33,0.02,3.5-0.02c9.35-0.3,14.54-7.61,11.92-16.77c-2.3-8.04-6.72-10.29-14.74-8.07
		c-7.83,2.17-15.73,4.17-23.69,5.77c-6.67,1.34-11.25,4.54-13.18,11.27c-0.73,2.54-1.75,5.04-2.94,7.4
		c-1.09,2.17-2.83,3.91-5.59,3.13c-2.91-0.82-3.38-3.42-2.65-5.66c1.64-5.02,3.74-9.88,5.75-14.77c2.69-6.57,7.45-9.62,14.74-9.55
		c9.45,0.09,18.38-2.8,27.18-6.01c4.8-1.75,8.46-4.73,10.25-9.56c1.9-5.14,4.42-10.27,5.08-15.6c2.07-16.93-4.44-27.29-22.01-33.82
		c-1.86-0.69-3.9-0.92-5.75-1.63c-5.24-2.03-6.13-6.11-2.23-10.06c1.16-1.18,2.56-2.13,3.81-3.23c4.22-3.71,5.71-8.57,5.24-13.95
		c-0.48-5.46-4.86-8.64-10.27-7.48c-7.3,1.57-13.79,5.12-19.34,9.96c-1.86,1.62-2.86,4.93-3.08,7.56c-0.45,5.46-0.36,11-0.04,16.47
		c0.37,6.43,3.35,11.96,7.91,16.27c4.66,4.4,6.28,9.17,4.31,15.24c-0.35,1.09-0.4,2.3-0.51,3.46c-0.27,2.77,1.06,4.75,3.71,5
		c2.58,0.24,3.81-1.79,3.99-4.19c0.12-1.65-0.15-3.32-0.19-4.98c-0.12-5.01,1.3-7.2,4.73-7.36c4.03-0.19,7.81,3.26,7.83,7.45
		c0.02,4.73-1.53,8.87-5.58,11.69c-5.02,3.48-10.62,4.65-16.64,3.9c-3-0.37-4.88-2.11-5.35-5.09c-0.34-2.13-0.52-4.3-0.56-6.46
		c-0.12-6.35-1.68-12.26-5.8-17.18c-5.83-6.97-7.65-14.91-6.78-23.79c0.37-3.8,0.14-7.66,0.06-11.49c-0.08-3.94-1.74-7.09-5.21-9.1
		c-12.45-7.23-25.36-10.93-39.52-5.12c-4,1.64-8.05,3.2-12.13,4.64c-4.42,1.55-7.46,4.52-8.82,8.88
		c-2.19,7.01-6.23,12.74-11.06,18.16c-5.05,5.66-3.38,14.48,2.98,18.64c3.1,2.03,6.29,2.08,9.5,0.61
		c5.6-2.57,10.18-6.37,12.87-12.03c1.5-3.15,2.99-6.38,3.86-9.73c1.93-7.43,11.79-12.25,19.78-10.92c4.23,0.7,6.58,3.14,6.55,7.44
		c-0.02,3.29-0.39,6.67-1.22,9.85c-1.5,5.79-0.79,10.96,3.31,15.37c7.38,7.93,10.24,17.68,11.94,28.04
		c0.8,4.89,0.34,9.26-2.78,13.21c-0.21,0.26-0.36,0.56-0.54,0.84c-11.03,16.85-11.13,12-10.82,34.51c0.05,3.86-1.41,6.86-4.56,8.9
		c-2.92,1.89-5.89,3.97-9.14,5.02c-2.49,0.8-5.75,0.89-8.15-0.04c-6.12-2.37-11.32-6.2-15.12-11.81
		c-5.32-7.85-13.09-9.96-21.65-6.19c-4.29,1.89-5.87,4.68-4.49,9.22c2.87,9.39,8.78,16.31,17.75,20.47c2.26,1.05,4.63,1.88,6.9,2.9
		c3.94,1.77,7.47,3.78,6.89,9.11c-0.6,5.45-4.02,10.02-8.99,11.41c-1.44,0.4-2.93,0.68-4.41,0.86c-5.34,0.66-9.87,2.76-13.4,6.95
		c-3.19,3.79-7.29,6.2-11.99,7.79c-3.62,1.22-7.39,2.41-10.58,4.42c-7.87,4.96-15.96,3.64-24.14,1.61
		c-3.49-0.87-4.65-2.83-4.04-5.75c0.55-2.64,2.89-4.19,6.05-3.99c0.33,0.02,0.66,0.08,0.99,0.15c17.69,4.01,31.14-3.19,42.2-16.24
		c2.69-3.17,5.64-4.41,9.63-3.72c2.29,0.4,4.71,1.18,6.89,0.78c1.56-0.29,3.66-2.05,4.01-3.51c0.5-2.09-1.27-3.59-3.65-3.73
		c-2.49-0.14-5.01-0.58-7.47-0.35c-4.31,0.4-6.84-1.47-8.63-5.22c-1.14-2.38-2.68-4.62-4.31-6.72c-3.95-5.08-6.98-10.58-8.18-16.94
		c-0.97-5.12-3.82-8.8-8.19-11.37c-3.72-2.19-7.44-4.42-11.32-6.32c-4.67-2.28-9.37-1.83-13.86,0.77c-0.72,0.42-1.45,0.81-2.14,1.28
		c-11.81,7.93-13.48,14.47-6.77,26.91c1.34,2.49,2.8,4.94,4.47,7.21c5.29,7.21,9.58,8.45,18.2,5.53c1.09-0.37,2.23-0.78,3.36-0.81
		c2.77-0.07,5.52,2.41,5.9,5.17c0.42,3.03-1.67,4.07-3.97,4.89c-13.74,4.93-26.46-0.12-33.14-13.3c-1.58-3.11-2.62-6.48-4.02-9.67
		c-2.66-6.06-5.99-7.95-11.69-6.75c-6.04,1.27-9.06,5.03-9.16,11.24c-0.13,8.78,2.18,16.45,9.62,21.93c1.6,1.18,3.07,2.58,4.42,4.04
		c3.67,3.98,4.05,9.33,1.14,14.3c-2.19,3.75-5.95,5.2-11.34,3.94c-2.9-0.67-5.84-1.58-8.45-2.97c-6.15-3.27-12.62-3.75-19.4-3.38
		c-5.97,0.32-11.99,0.39-17.94-0.02c-6.2-0.43-11.34,1.03-15.96,5.36c-6.07,5.69-12.8,10.69-18.76,16.49
		c-4.46,4.35-9.55,5.55-15.4,5.62c-9.64,0.12-19.29,0.44-28.93,0.76c-3.06,0.1-6.01,0.15-8.35-2.28c-1.95-2.03-3.37-4.2-1.93-7.13
		c1.43-2.91,3.88-3.18,6.77-2.8c7.07,0.92,14.15,1.84,21.25,2.46c11.24,0.99,20.94-2.28,29-10.49c3.48-3.54,7.78-6.27,11.5-9.59
		c4.41-3.94,5.39-8.26,2.63-13.46c-1.76-3.32-4.14-6.48-6.82-9.11c-3.18-3.12-6.62-2.88-9.65,0.36c-2.71,2.91-5.28,6.03-7.42,9.38
		c-5.02,7.84-12.37,11.25-21.23,10.61c-9.95-0.73-19.82-2.45-29.72-3.72c-2.69-0.35-3.97-2.21-4.9-4.45
		c-0.77-1.84-1.29-3.81-2.25-5.54C4.48,243.41,2.6,242.27,0,244c0-2.67,0-5.33,0-8c4.62-0.77,7.79,1.87,11.14,4.43
		c3.4,2.59,6.79,5.89,10.71,6.94c6.49,1.75,13.38,2.11,20.13,2.76c6.37,0.62,11.12-2.64,15.14-7.2c2.74-3.12,5.42-6.29,8.16-9.42
		c5.8-6.63,6.39-17.34,1.29-24.46c-2.92-4.08-7.14-5.31-11.85-4.89c-4.56,0.41-6.24,4.01-7.45,7.73c-0.87,2.68-1.23,5.51-2,8.23
		c-1.87,6.55-4.71,8.27-11.43,7.17c-6.62-1.08-12.14-4.49-17.2-8.58C11.67,214.69,6.34,212.77,0,214c0-2.67,0-5.33,0-8
		c5.08-1.64,7.33-5.57,9.21-10.29c1.87-4.7,3.98-9.67,7.26-13.39c7.04-7.99,6.56-16.49,3.64-25.62c-1.26-3.95-3.88-6.79-7.85-7.59
		C8.26,148.3,4.09,148.34,0,148c0-2.67,0-5.33,0-8c5.65,0.36,11.32,0.54,16.95,1.12c6.47,0.66,8.41,2.41,9.74,8.74
		c1.37,6.52,2.23,13.14,3.71,19.63c1.35,5.92-0.19,10.71-4.05,15.22c-3.02,3.53-5.94,7.24-8.24,11.26
		c-4.28,7.46-2.64,13.24,4.59,17.92c1.52,0.99,3.21,1.79,4.92,2.4c5.91,2.08,9.15,0.59,11.3-5.28c1.26-3.43,2.13-7.01,3.4-10.44
		c1.93-5.23,4.06-6.63,9.5-5.81c4.93,0.74,9.77,2.04,14.68,2.94c4.43,0.82,7.16,3.43,8.28,7.66c1.28,4.82,2.11,9.78,3.62,14.52
		c0.98,3.09,2.22,6.5,4.4,8.73c5.65,5.79,10.57,11.89,13.59,19.51c1.73,4.37,5.32,6.95,10.13,6.86c7.3-0.15,14.8,0.27,21.83-1.29
		c6.38-1.41,11.31-0.61,16.15,3.41c1.91,1.59,4.08,2.89,6.23,4.17c2.04,1.21,4.47,2.46,6.14-0.22c1.78-2.85-0.3-4.62-2.55-6.04
		c-0.99-0.62-2.05-1.12-3.05-1.7c-2.16-1.26-4.29-2.56-6.45-3.81c-2.64-1.52-4.04-3.55-4.14-6.82c-0.25-8.32-0.93-16.62-1.29-24.93
		c-0.2-4.62,1.18-6.62,5.67-8.26c2.81-1.03,5.71-1.93,8.64-2.42c7.39-1.23,13.08-4.81,18.19-10.38c4.67-5.1,10.55-9.1,15.93-13.54
		c3.68-3.04,7.57-2.94,11.61-0.7c5.82,3.23,11.7,6.36,17.49,9.66c3.66,2.09,7.53,2.86,11.54,1.75c8.3-2.29,16.7-2.52,25.24-2.29
		c3.86,0.11,5.86,1.61,6.91,5.05c0.73,2.38,1.27,4.87,2.37,7.07c2.64,5.27,8.88,8.13,13.73,6.59c4.98-1.59,7.77-6.63,7.01-12.89
		c-0.24-1.98-0.76-3.92-1.22-5.86c-1.07-4.47-0.66-8.44,2.79-11.99c2.65-2.73,4.83-5.93,7.17-8.96c4.27-5.52,5.1-11.77,3.88-18.46
		c-1.73-9.48-6.9-17-14.07-22.97c-4.29-3.58-4.72-7.29-2.83-11.88c0.95-2.3,2.16-4.49,3.26-6.73c0.59-1.19,1.53-2.33,1.7-3.58
		c0.15-1.15-0.14-3-0.9-3.47c-1.04-0.65-2.93-0.75-4.04-0.22c-1.21,0.58-2.31,2.01-2.82,3.32c-1.74,4.47-3.33,9.01-4.7,13.61
		c-0.77,2.61-1.41,5.01-4,6.56c-5.15,3.06-10.1,6.46-15.28,9.47c-2.41,1.4-5.08,2.53-7.78,3.24c-4.44,1.17-8.23-0.18-10.91-4.07
		c-2.46-3.56-5-7.08-7.32-10.72c-4.73-7.42-4.6-10.47,0.54-17.71c2.89-4.07,5.95-8.03,8.76-12.16c4.3-6.32,5.52-12.95,2.46-20.34
		c-2.59-6.26-3.42-12.84-1.47-19.57c1.67-5.76,1.47-11.46-0.51-17.18c-2.09-6.03-2.03-12.08,0.46-18.07
		c0.63-1.52,1.03-3.19,1.2-4.82c0.96-9.31-6.22-15.26-15.11-12.58c-8.96,2.7-11.86,7.5-11.04,16.8c1.16,13.25,1.93,26.54,2.81,39.82
		c0.35,5.31,0.18,10.69,0.9,15.94c0.8,5.79-0.31,10.77-3.53,15.62c-3.49,5.26-7.47,10.5-9.51,16.35
		c-2.74,7.85-7.04,12.53-15.29,14.37c-3.69,0.82-7.03,3.66-10.28,5.94c-2.57,1.81-3.08,4.94-1.39,6.43c2.15,1.9,3.99,0.61,5.72-0.88
		c0.5-0.44,0.95-0.98,1.53-1.28c3.64-1.9,7.25-3.87,10.98-5.56c3.9-1.76,6.8-0.37,9.54,2.9c6.04,7.21,11.14,14.94,14.81,23.6
		c2.87,6.78,8.06,9.9,15.38,9.61c3.33-0.13,6.66-0.25,9.99-0.26c8.89-0.01,17.33-1,23.23-8.92c1.36-1.82,3.55-2.83,5.75-1.47
		c2.52,1.55,2.57,4.02,1.69,6.64c-2.4,7.1-9.01,11.77-16.62,11.96c-7.99,0.2-15.97,0.56-23.95,0.94c-10.6,0.51-21.1-1.9-23.98-16.43
		c-1.11-5.57-3.78-10.64-7.86-14.82c-3.66-3.75-7.82-4.71-12.76-2.86c-8.17,3.06-13.53,8.3-14.13,17.48
		c-0.12,1.82-0.62,3.62-0.74,5.44c-0.29,4.41-2.44,7.72-5.42,10.89c-9.77,10.4-21.79,16.72-35.37,20.55
		c-3.26,0.92-6.07,0.81-9.14-0.59c-2.68-1.23-5.59-2.34-8.49-2.62c-7.89-0.76-14.1,7.4-11.01,14.69c1.22,2.87,3.61,5.78,6.24,7.43
		c7.79,4.9,7.97,12.53,8.12,20.22c0.02,1.14-1.32,2.91-2.42,3.31c-1.09,0.39-2.81-0.34-3.99-1.04c-0.91-0.55-1.71-1.7-2.03-2.75
		c-1.99-6.54-5.98-11.81-10.2-17c-1.24-1.52-2.15-3.37-2.92-5.2c-5.04-11.94-4.02-15.17,5.55-23.86c5.54-5.03,11.32-6.61,18.31-4.08
		c7.49,2.71,14.74,1.65,21.86-1.45c12.77-5.55,22.5-13.86,24.42-28.51c0.86-6.54,1.27-13.26,0.82-19.82
		c-0.43-6.2,1.31-10.63,7.09-12.71c11.38-4.1,18.93-11.93,23.75-22.8c1.48-3.34,3.61-6.39,5.08-9.73c0.92-2.08,1.61-4.47,1.62-6.72
		c0.13-18.48,0.54-36.98-2.19-55.36c-1.28-8.63-3.11-10.6-11.72-12.38c-4.38-0.9-9.05-1.51-12.92-3.54
		c-6.9-3.62-13.92-4.72-21.58-4.59C152.14,2.04,146.56,0.7,141,0c15.67,0,31.33,0,47,0c5.29,2.92,11,2.86,16.71,2.12
		c1.49-0.19,2.86-1.38,4.29-2.12c11,0,22,0,33,0c1.03,6.39,6.09,10.63,12.19,9.38c7.8-1.6,15.49-3.75,23.14-5.96
		c1.74-0.5,3.12-2.25,4.66-3.42c3.67,0,7.33,0,11,0c1.19,2.07,1.95,4.62,3.64,6.13c4.17,3.71,9.32,5.58,14.93,5.89
		C318.68,12.4,326.31,7.08,329,0c3.67,0,7.33,0,11,0c-0.33,2.56,0.2,4.81,3.2,4.96c3.2,0.16,4.54-2.01,4.8-4.96c8.33,0,16.67,0,25,0
		c4.27,2.75,8.42,5.72,12.86,8.15c1.58,0.86,3.94,0.85,5.81,0.52c8.15-1.43,16.28-3,24.35-4.8c2.01-0.45,4.84-0.64,4.98-3.86
		c3.67,0,7.33,0,11,0c-0.98,2.42-2.26,4.77-2.87,7.28c-1.04,4.32,0.91,8.12,2.71,11.9c3.73,7.83,7.36,15.75,7.41,24.64
		c0.02,4.63-0.46,9.28-1.01,13.89c-0.66,5.53-1.32,11.03,2.44,15.79c4.68,5.92,6.11,12.77,6.22,20.09c0.03,2.15,0.02,4.47,0.83,6.36
		c0.58,1.34,2.51,2.09,3.84,3.11c1.05-1.5,3.21-3.2,2.98-4.46c-1.73-9.37-1.07-19.39-7.46-27.58c-2.53-3.24-2.98-7.18-2.34-11.39
		c1.6-10.6,2.26-21.21-1.93-31.48c-1.63-4-3.14-8.07-5.04-11.94c-2.35-4.78-2.47-9.21,0.82-13.58c0.59-0.78,0.94-1.76,1.4-2.64
		C443.33,0,446.67,0,450,0z"/>
	<path class="st3" d="M0,119c0-3.33,0-6.67,0-10c1.62,0.26,3.23,0.56,4.85,0.77c5.41,0.7,10.8,1.58,16.23,1.92
		c1.76,0.11,4-0.81,5.35-2.02c3.95-3.54,4.21-14.26,0.56-18.06c-1.08-1.12-2.74-2.23-4.22-2.34C15.19,88.66,7.59,88.39,0,88
		c0-12,0-24,0-36c9.79-2.16,18.07-6.57,23.6-15.36c2.38-3.79,6.08-5.49,10.57-5.65c5.49-0.2,10.97-0.8,16.46-0.74
		c5.62,0.06,11.37-0.02,15.17,5.62c5.16,7.66,12.75,12.59,20.59,17.08c8.16,4.68,13.69,3.82,19.97-3.15
		c2.78-3.09,5.18-6.51,7.71-9.82c2.5-3.27,5.65-5.24,9.87-4.7c12.22,1.54,24.44,3.11,36.64,4.83c4,0.56,7.92,2.36,8.2,6.8
		c0.5,7.77,1.18,15.75-0.06,23.35c-1.97,12.14-12.06,17.5-23.94,14c-1.28-0.38-2.55-0.77-3.8-1.23c-8.83-3.26-15.69,0.83-21.71,6.42
		c-5.65,5.25-4.62,12.11-2.8,18.72c1.22,4.44,3.46,5.52,7.95,3.94c2.81-0.99,5.54-2.29,8.19-3.68c4.35-2.28,8.87-3.16,13.49-1.36
		c8.02,3.13,15.31,1.96,22.2-2.98c1.89-1.36,3.97-2.44,5.89-3.76c9.97-6.85,15.84-16.63,16.52-28.37
		c0.72-12.41-0.34-24.93-0.96-37.39c-0.28-5.69-3.6-9.75-9.09-11.34c-7.17-2.08-14.4-4.07-21.73-5.41
		c-8.99-1.65-18.12-2.59-27.18-3.84c-3.79-0.52-7.58-1.19-11.39-1.49c-10-0.8-18.07,2.22-22.58,11.92c-0.42,0.9-0.96,1.75-1.49,2.6
		c-1.46,2.28-3.38,3.73-6.25,3.04c-2.96-0.71-5.01-2.53-6.07-5.4c-1.09-2.96,0.65-4.69,2.72-6.31c4.71-3.7,9.32-7.53,14.14-11.08
		c1.83-1.35,4.11-2.88,6.22-2.93c8.45-0.19,17.11-0.91,25.32,0.59c9.82,1.79,19.43,4.24,29.54,4.11c3.7-0.05,7.48,1.18,11.12,2.18
		c5.59,1.55,11.03,3.66,16.65,5.07c5.9,1.48,6.88,2.1,7.73,8.05c2.44,17.04,2.9,34.19,1.93,51.34c-0.21,3.66-1.74,7.38-3.27,10.8
		c-1.76,3.93-4.24,7.54-6.31,11.34c-2.74,5.02-6.78,8.52-11.98,10.86c-3.33,1.5-6.58,3.22-9.73,5.09c-4.03,2.39-6.12,5.99-5.89,10.8
		c0.14,2.99,0.42,6,0.26,8.99c-0.29,5.44-0.72,10.89-1.34,16.3c-1.73,15.13-23.86,28.33-37.43,23.32
		c-10.94-4.04-19.45-0.68-26.83,7.48c-1.79,1.97-3.76,3.78-5.62,5.69c-2.45,2.52-3.7,5.5-3.33,9.06c0.89,8.43,3.56,16.17,8.47,23.18
		c2.94,4.2,5.46,8.68,8.21,13.01c1.42,2.23,2.61,4.73,4.46,6.52c3.93,3.79,12.51,2.92,15.19-1.23c3.79-5.85,0.78-24.75-4.66-29.09
		c-1.04-0.83-2.2-1.5-3.31-2.24c-0.97-0.65-1.96-1.27-2.89-1.96c-2.52-1.86-3.16-4.47-1.81-7.07c1.27-2.45,3.83-2.37,6.19-1.55
		c1.41,0.48,2.82,1.08,4.07,1.87c4.35,2.76,8.79,2.59,13.38,0.75c3.55-1.43,7.05-3.08,10.72-4.11c7.58-2.12,13.96-6.14,19.67-11.42
		c2.69-2.49,5.37-5.01,8.25-7.26c4.68-3.67,6.74-8.44,7.02-14.27c0.15-3.14,0.52-6.33,1.29-9.37c1.12-4.39,5.88-8.19,10.15-8.51
		c4.93-0.37,7.23,3.03,8.8,6.8c1.71,4.13,2.51,8.66,4.35,12.72c1.46,3.23,3.37,6.62,5.99,8.88c5.61,4.83,12.45,6.77,19.95,6.45
		c10.3-0.45,20.62-0.66,30.92-1.08c1.77-0.07,3.8-0.23,5.23-1.11c5.49-3.4,9.7-8.15,12.51-13.95c2.61-5.39,0.76-13.22-3.55-16.44
		c-3.84-2.87-8.2-1.97-13.88,2.87c-0.13,0.11-0.28,0.2-0.38,0.32c-4.61,5.41-10.73,6.92-17.51,6.83c-2.83-0.04-5.69-0.11-8.49,0.21
		c-6.59,0.75-10.34-2.26-13.37-8.01c-3.86-7.33-8.09-14.68-13.41-20.96c-4.36-5.14-4.73-9.59-1.78-14.9
		c3.63-6.54,7.32-13.06,11.29-19.4c3.27-5.21,4.41-10.58,3.51-16.66c-0.75-5.09-1.46-10.31-1.12-15.4
		c0.61-9.04,0.3-17.95-0.97-26.89c-0.8-5.6-1.33-11.25-1.79-16.89c-0.28-3.43,1.71-5.87,4.73-6.88c1.85-0.62,4.53-0.78,6.07,0.14
		c2.92,1.75,1.91,4.95,1.32,7.74c-0.07,0.32-0.19,0.64-0.31,0.95c-2.75,6.81-2.15,13.71-0.49,20.62c1.31,5.42,1.59,10.79,0.38,16.32
		c-1.44,6.61-1.48,13.39,1.11,19.69c3.01,7.32,1.75,13.52-2.95,19.58c-3.47,4.46-6.68,9.15-9.71,13.92
		c-3.32,5.23-3.43,10.68-0.01,16.01c3.42,5.32,6.74,10.72,10.34,15.91c3.79,5.47,9.25,7.8,15.66,6.11
		c4.58-1.21,9.01-3.28,13.23-5.48c3.97-2.07,7.55-4.87,11.36-7.25c3.22-2.01,6.46-1.88,9.07,0.98c2.9,3.18,5.99,6.35,8.15,10.02
		c5.65,9.61,4.78,17.52-2.27,26.23c-2.09,2.59-4.3,5.09-6.45,7.63c-3.02,3.57-4.03,7.48-2.46,12.07c0.91,2.66,1.75,5.48,1.77,8.24
		c0.01,1.61-1.28,3.94-2.66,4.68c-2.11,1.14-4.32-0.24-5.3-2.4c-1.02-2.25-1.68-4.68-2.29-7.08c-1.68-6.62-3.87-8.86-10.75-8.72
		c-8.63,0.16-17.26,0.83-25.85,1.72c-4.45,0.47-8.58,0.46-12.56-1.81c-5.65-3.21-11.32-6.37-17.06-9.42c-2.64-1.41-3.85-3.45-4-6.38
		c-0.23-4.66-0.55-9.31-0.96-13.96c-0.2-2.21-0.62-4.56-3.66-4.34c-3.18,0.23-3.53,2.57-3.3,5.08c0.33,3.65,0.65,7.31,1.19,10.93
		c0.76,5.09-1.12,8.44-5.62,11.07c-4.13,2.41-8.29,5.23-11.47,8.74c-7.4,8.17-15.99,13.3-26.91,15.82
		c-12.68,2.92-13.78,5.66-12.88,18.77c0.43,6.31,0.73,12.64,0.71,18.96c-0.01,5.05-1,6.2-5.94,7c-5.08,0.82-10.24,1.16-15.37,1.65
		c-5.91,0.56-9.47-2.19-12.24-7.42c-2.77-5.22-6.4-10.06-10.18-14.63c-2.85-3.44-4.96-7-5.97-11.32c-1.14-4.86-2.52-9.66-3.67-14.52
		c-1.18-4.94-4.42-7.7-9.15-8.86c-5.5-1.34-11.02-2.59-16.56-3.78c-10.22-2.19-15.22,0.61-18.78,10.53
		c-0.84,2.34-1.23,4.84-2.03,7.2c-1.35,3.99-4.34,4.87-7.81,2.41c-3.31-2.34-4.22-6.29-1.64-10.16c3.14-4.69,6.78-9.06,10.27-13.51
		c2.38-3.03,3.72-6.4,3.06-10.22c-1.71-9.84-3.6-19.65-5.4-29.48c-1.12-6.08-4.97-9.41-10.88-9.97C14.3,134.52,7.14,134.37,0,134
		c0-3,0-6,0-9c9.13,0.74,18.27,1.35,27.38,2.25c11.24,1.11,11.13,1.29,12.75,12.36c1.47,10.05,3.24,20.05,5.01,30.05
		c1.04,5.84,4.45,9.39,10.47,10.54c5.39,1.03,10.68,2.6,16.06,3.7c5.73,1.16,10.82,0,15.09-4.42c4.16-4.31,8.82-8.15,12.89-12.53
		c4.8-5.17,10.51-5.87,16.92-4.53c3.42,0.72,6.83,1.58,10.29,2.06c7.57,1.05,14.15-1.1,19.55-6.61c7.81-7.97,11.64-26.58,7.22-36.57
		c-0.85-1.93-2.85-3.75-4.76-4.74c-4.7-2.44-9.77-2.23-14.49-0.02c-3.9,1.82-7.49,4.3-11.26,6.41c-6.41,3.58-11.39,1.84-12.84-5.26
		c-1.66-8.12-2.45-16.43-3.38-24.68c-0.43-3.77,1.45-6.77,4.45-8.99c5.88-4.35,11.79-8.67,17.69-12.98
		c2.82-2.06,5.63-2.55,8.74-0.37c2.31,1.62,4.79,3.05,7.32,4.28c6.13,2.98,12.37,0.87,14.81-5.47c1.28-3.31,1.94-7.15,1.73-10.68
		c-0.42-7.1-3.6-9.93-10.71-10.81c-6.11-0.75-12.28-1.23-18.33-2.31c-6.58-1.18-11.66,0.79-16.09,5.65
		c-3.47,3.8-7.16,7.46-11.11,10.75c-7.4,6.16-9.85,6.51-17.82,1.32c-8.49-5.53-16.68-11.54-24.7-17.74
		c-4.9-3.78-9.78-6.46-16.24-6.6c-8.42-0.18-15.05,2.84-21.1,8.51c-3.83,3.59-8.5,6.29-12.84,9.31c-1.91,1.32-4.18,2.2-5.88,3.73
		c-4.27,3.83-4.28,8.77-2.82,13.84c1.33,4.6,5.09,5.84,9.27,6.26c6.34,0.63,11.74-0.9,15.95-6.22c2.66-3.36,5.96-6.26,9.16-9.15
		c3.82-3.44,8.16-3.45,12.5-1.02c2.17,1.22,4.19,2.71,6.25,4.12c7.57,5.15,15.04,10.45,22.73,15.42c3.39,2.19,5.23,4.88,5.47,8.9
		c0.61,10.29,0.79,20.61,3.76,30.66c1.31,4.44-1.28,7.71-5.53,8.21c-3.77,0.44-5.44-1.72-5.58-6.85
		c-0.22-7.99-0.52-15.97-0.87-23.95c-0.21-4.97-2.5-8.98-6.34-11.99c-5.76-4.52-11.5-9.11-17.56-13.22
		c-7.07-4.79-13.31-3.18-17.84,4.05c-2.76,4.4-2.12,8.79,2.01,11.93c2.11,1.6,4.43,2.98,6.82,4.14
		c8.45,4.12,11.76,10.43,11.29,20.09c-0.62,12.77,0.16,25.63,0.74,38.44c0.28,6.21,3.16,11.21,9.45,13.45
		c6.46,2.3,12.13,0.92,16.84-4.03c2.75-2.89,5.31-5.97,7.98-8.94c6.82-7.58,14.6-12.08,25.21-8.22c2.16,0.79,4.54,1.06,6.84,1.42
		c10.29,1.59,17.93-4.05,19.31-14.48c0.17-1.27-0.85-3.53-1.85-3.9c-1.11-0.42-3.15,0.46-4.2,1.41c-1.01,0.91-1.31,2.63-1.84,4.02
		c-2.28,6-4.13,7.21-10.6,6.21c-4.44-0.68-8.78-2.09-13.23-2.51c-3.21-0.3-6.83-0.25-9.73,0.94c-6.18,2.54-11.74,6.27-15.83,11.82
		c-1.58,2.14-3.21,4.26-4.99,6.24c-3.1,3.46-6.89,5.51-11.56,3.78c-4.54-1.68-5.88-5.75-5.91-10.12
		c-0.08-11.97-0.45-23.98,0.23-35.91C63.01,104.06,58.95,96.05,48.8,91c-2.08-1.03-4.28-2.12-5.85-3.74
		c-1.05-1.08-1.87-3.46-1.37-4.67c0.54-1.29,2.67-2.42,4.25-2.64c1.45-0.2,3.22,0.67,4.58,1.51c2.26,1.4,4.31,3.13,6.43,4.75
		c15.11,11.48,13.99,10.33,14.29,28.57c0.1,6.1,1.31,12.17,1.77,18.28c0.17,2.25-0.09,4.62-0.65,6.81
		c-0.86,3.37-2.43,6.58-3.12,9.98c-0.24,1.16,0.97,3.46,1.99,3.81c1.1,0.37,3.18-0.6,4.08-1.63c1-1.16,1.31-3.02,1.63-4.64
		c1.07-5.36,3.66-8.65,9.45-10.09c9.31-2.31,11.55-7.21,9.4-16.45c-1.35-5.8-2.22-11.73-2.96-17.65c-0.52-4.12-0.48-8.3-0.68-12.46
		c-0.23-4.86-2.4-8.5-6.57-11.09c-5.94-3.69-11.84-7.45-17.64-11.35c-4.97-3.34-9.67-7.11-14.71-10.34
		c-5.44-3.48-11.15-3.25-16.4,0.47c-3.11,2.2-5.85,4.92-8.68,7.5c-2.46,2.24-4.6,4.86-7.24,6.84c-3.3,2.48-8.89,1.81-10.44-0.84
		c-1.73-2.95-0.19-6.54,4.42-8.66c6.02-2.76,11.29-6.47,15.73-11.27c7.2-7.8,20.3-8.16,28.86-0.88c8.7,7.4,18.66,13.33,28.09,19.87
		c5.94,4.12,11.94,4,17.52-0.52c5.28-4.28,10.39-8.81,15.35-13.47c3.15-2.96,6.25-5.43,10.95-4.74c5.6,0.82,11.22,1.44,16.83,2.2
		c6.14,0.83,8,3.45,6.91,9.55c-0.82,4.55-4.47,6.42-8.54,4.21c-2.04-1.1-3.83-2.65-5.81-3.88c-5.09-3.16-10.08-2.96-14.9,0.64
		c-6.66,4.98-13.28,10.02-19.98,14.94c-3.49,2.56-5.09,5.81-5.26,10.18c-0.42,10.77,1.14,21.27,3.82,31.63
		c1.55,6.01,5.25,8.8,11.43,9.43c4.7,0.48,8.7-0.72,12.61-3.53c3.44-2.47,7.33-4.68,11.35-5.89c4.89-1.48,8.14,1.06,8.82,6.07
		c0.95,7.09,0.08,13.98-3.25,20.41c-3.85,7.43-9.75,10.61-18.06,9.5c-3.95-0.53-7.83-1.56-11.76-2.3
		c-6.94-1.31-13.16-0.27-18.39,5.07c-4.78,4.87-9.9,9.41-14.84,14.12c-2.31,2.2-5.03,3.38-8.18,2.81
		c-5.56-1.01-11.11-2.14-16.61-3.43c-3.35-0.79-5.48-3.13-6.28-6.47c-0.85-3.56-1.64-7.15-2.17-10.77
		c-1.18-8.07-1.78-16.25-3.41-24.22c-0.9-4.38-1.29-8.34,0.1-12.66c1.99-6.21-0.34-11.83-3.58-17.04c-1.03-1.65-2.59-3.31-4.96-1.9
		c-2.15,1.28-2.16,3.22-1.22,5.22c0.99,2.1,2.36,4.05,3.15,6.21c2.23,6.13-0.24,9.23-6.71,8.78C21.59,120.39,10.79,119.71,0,119z"/>
	<path class="st3" d="M0,401c0-3.33,0-6.67,0-10c2.92,0.56,5.82,1.25,8.76,1.63c4.1,0.53,8.24,1.19,12.35,1.11
		c4.75-0.1,6.76-2.22,7.84-6.87c2.59-11.13-1.36-16.05-12.65-16.35C10.86,370.37,5.43,369.53,0,369c0-11.67,0-23.33,0-35
		c9.6-2.12,17.82-6.32,23.28-14.97c2.14-3.39,5.39-5.55,9.46-5.83c6.81-0.47,13.63-0.81,20.45-0.94c5.46-0.1,9.81,2.01,13.28,6.57
		c5.63,7.42,13.26,12.59,21.36,16.99c6.15,3.34,10.89,2.99,16.03-1.81c3.49-3.26,6.45-7.15,9.34-10.99
		c3.45-4.58,7.53-6.61,13.39-5.4c6.35,1.31,12.81,2.15,19.24,3.03c4.78,0.65,9.63,0.86,14.41,1.57c4.11,0.61,8.27,2.04,8.58,6.93
		c0.46,7.45,1.18,15.08,0.06,22.37c-1.61,10.49-10.02,19.16-23.88,14.88c-1.43-0.44-2.87-0.86-4.29-1.35
		c-8.83-3.04-15.57,0.84-21.58,6.68c-5.66,5.5-4.39,12.16-2.51,18.71c1.2,4.16,3.43,5.23,7.64,3.72c3.12-1.12,6.17-2.52,9.09-4.1
		c3.58-1.94,7.22-2.35,11.1-1.37c1.77,0.45,3.57,0.83,5.33,1.34c5.41,1.58,10.51,1.1,15.31-2.04c3.34-2.19,6.95-4,10.11-6.42
		c9.81-7.5,15.16-17.53,15.79-29.87c0.31-6.15,0.27-12.34,0-18.49c-0.28-6.14-0.93-12.28-1.65-18.39c-0.51-4.33-3.01-7.46-7.11-8.88
		c-5.97-2.07-11.93-4.5-18.1-5.57c-12.95-2.24-26.04-3.59-39.05-5.49c-12.57-1.84-22.86,0.74-28.53,13.49
		c-1.13,2.54-3.43,4.92-6.26,3.69c-2.5-1.08-4.95-3.36-6.3-5.75c-1.63-2.88,1.06-4.81,3.22-6.47c3.95-3.04,8.03-5.95,11.82-9.18
		c3.59-3.06,7.57-4.74,12.25-4.91c9.53-0.34,18.93,0.07,28.23,2.67c4.74,1.33,9.79,1.97,14.72,2.11c8.37,0.24,16.48,0.73,24.19,4.73
		c3.59,1.86,7.95,2.3,12,3.23c5.09,1.17,6.27,1.94,6.74,7.15c1.1,12.26,2.48,24.55,2.57,36.84c0.17,23.31,0.8,18.17-9.85,37.16
		c-2.64,4.7-6.23,8.12-11.05,10.42c-3.6,1.72-7.21,3.47-10.64,5.51c-3.99,2.37-6.2,5.96-6.01,10.76c0.16,3.99,0.45,7.98,0.52,11.97
		c0.15,9.18-0.94,18.4-7.23,25.35c-9.15,10.1-20.49,15.32-34.54,11c-0.95-0.29-1.95-0.42-2.91-0.7c-5.62-1.62-10.66-0.21-14.96,3.39
		c-4.2,3.52-8.08,7.43-12.01,11.26c-2.68,2.61-3.73,5.94-3.16,9.6c1.26,8.13,3.51,15.85,8.56,22.63c2.96,3.97,5.31,8.39,7.92,12.61
		c1.05,1.7,1.9,3.53,3.12,5.1c2.72,3.51,8.72,4.92,13.21,3.29c3.42-1.24,5.13-4.11,4.88-9.4c-0.24-4.97-0.91-9.92-1.53-14.87
		c-0.51-4.08-2.81-7.01-6.3-9.12c-1.85-1.12-4.1-2.07-5.21-3.74c-1.02-1.54-1.41-4.14-0.86-5.9c0.72-2.3,3.18-2.76,5.49-1.95
		c1.72,0.6,3.45,1.28,5.01,2.21c4.07,2.43,8.2,2.33,12.47,0.7c4.36-1.66,8.68-3.45,13.13-4.82c5.69-1.76,10.67-4.61,15.1-8.52
		c3.25-2.87,6.37-5.9,9.82-8.51c5.63-4.27,8.05-9.9,8.3-16.81c0.1-2.8,0.59-5.65,1.34-8.36c1.19-4.27,5.71-7.81,9.9-8.04
		c4.8-0.26,7.27,2.91,8.93,6.71c1.33,3.03,2.48,6.23,3.09,9.47c1.57,8.42,6.61,13.84,14.42,16.34c4.49,1.43,9.42,2.02,14.15,2.04
		c8.14,0.04,16.31-1.2,24.42-0.87c7.04,0.29,12.79-1.04,17.05-6.94c1.26-1.75,2.83-3.29,4.05-5.07c0.92-1.36,1.71-2.88,2.21-4.44
		c1.77-5.55-0.37-12.71-4.46-15.36c-3.8-2.46-8.38-1.76-13.38,3.32c-5.24,5.31-11.32,7.27-18.48,7.04
		c-2.49-0.08-5.02-0.11-7.49,0.21c-6.78,0.85-10.68-2.32-13.87-8.13c-4.15-7.56-8.85-14.9-14.1-21.74
		c-3.19-4.16-4.08-7.99-1.8-12.34c3.47-6.61,7.03-13.22,11.13-19.45c3.78-5.74,5.33-11.57,4.37-18.41
		c-0.81-5.75-1.36-11.65-0.99-17.42c0.72-11.25-0.66-22.27-2.12-33.34c-0.41-3.13-0.84-6.32-0.64-9.45
		c0.26-4.11,4.57-7.14,8.58-6.54c3.55,0.53,4.75,3.34,3.55,8.33c-0.08,0.32-0.18,0.64-0.31,0.95c-2.96,7.12-1.94,14.26-0.64,21.59
		c0.85,4.82,1.1,9.98,0.34,14.79c-1.11,7.1-1.29,14,1.3,20.66c2.85,7.32,1.47,13.61-3.21,19.62c-3.17,4.07-6.19,8.27-9.01,12.59
		c-3.9,5.99-4.17,12.13-0.08,18.26c3.33,4.99,6.53,10.06,9.85,15.06c2.34,3.52,5.69,5.5,9.85,6.2c6.13,1.04,11.52-1.04,16.58-4.12
		c4.69-2.85,9.22-5.98,13.87-8.91c3.26-2.06,6.58-1.84,9.03,1.08c3.39,4.05,6.9,8.16,9.38,12.78c4.08,7.59,3.12,15.13-2.38,21.91
		c-2.41,2.98-4.89,5.9-7.34,8.85c-3.22,3.87-4.34,8.08-2.56,13c0.84,2.33,1.3,4.82,1.7,7.27c0.43,2.66-0.71,4.68-3.4,5.28
		c-2.53,0.57-4.17-1.03-4.98-3.19c-0.93-2.48-1.51-5.09-2.19-7.66c-1.4-5.24-4.15-7.84-9.6-7.66c-9.12,0.31-18.25,0.94-27.33,1.85
		c-4.3,0.43-8.21,0.32-12.04-1.9c-5.47-3.17-11.04-6.19-16.63-9.14c-2.74-1.45-4.32-3.35-4.43-6.61c-0.15-4.66-0.6-9.3-0.96-13.95
		c-0.18-2.28-0.64-4.51-3.61-4.4c-3.32,0.13-3.46,2.66-3.29,5.06c0.29,3.99,0.74,7.96,1.2,11.93c0.46,4.04-1.11,6.79-4.42,9.29
		c-7.01,5.31-13.81,10.92-20.38,16.76c-3.34,2.97-6.79,5.19-11.15,6.24c-4.2,1.01-8.38,2.22-12.41,3.76
		c-7.72,2.95-9.14,5.39-8.76,13.53c0.36,7.65,0.78,15.3,0.96,22.96c0.11,4.63-0.92,5.87-5.54,6.71c-4.41,0.8-8.91,1.18-13.36,1.76
		c-7.36,0.95-12.26-1.73-15.39-8.81c-1.96-4.45-5.08-8.6-8.44-12.17c-3.57-3.79-6.01-7.84-7.13-12.88
		c-1.08-4.87-2.34-9.71-3.7-14.51c-1.24-4.35-4.22-7.21-8.58-8.27c-6.79-1.66-13.63-3.09-20.47-4.56c-5.17-1.12-9.3,0.77-12.09,5.03
		c-1.7,2.6-2.79,5.62-3.96,8.53c-0.61,1.53-0.68,3.27-1.23,4.83c-1.39,3.99-4.4,4.89-7.84,2.45c-3.53-2.5-4.32-6.43-1.5-10.56
		c3.19-4.67,6.79-9.06,10.35-13.46c2.13-2.63,3.17-5.58,2.65-8.82c-1.67-10.35-3.49-20.67-5.36-30.99
		c-1.03-5.66-4.78-8.82-10.27-9.38C14.63,416.6,7.3,416.42,0,416c0-3,0-6,0-9c9.29,0.78,18.6,1.35,27.86,2.39
		c10.84,1.21,10.69,1.4,12.31,12.28c1.52,10.21,3.25,20.39,5.08,30.55c0.94,5.25,4.2,8.55,9.48,9.77
		c5.68,1.31,11.33,2.77,17.04,3.95c5.75,1.18,10.77-0.1,15.03-4.51c4.39-4.55,9.21-8.69,13.7-13.14c4.33-4.3,9.36-5.4,15.16-3.98
		c3.4,0.83,6.81,1.63,10.26,2.19c9.85,1.6,19.97-3.05,24.59-11.69c4.99-9.34,5.62-19.39,3.63-29.65c-0.77-3.99-3.36-6.36-7.22-7.48
		c-5.46-1.58-10.58-0.55-15.41,2.12c-2.76,1.53-5.33,3.41-8.06,5.01c-6.47,3.79-11.72,1.97-13.25-5.25
		c-1.55-7.29-2.21-14.78-3.14-22.2c-0.74-5.96,1.81-10.13,6.96-13.21c4.12-2.46,8.06-5.33,11.74-8.42
		c6.74-5.66,7.84-5.87,15.21-0.99c10.54,6.98,19.51,2.78,20.83-9.8c0.16-1.48,0.13-3.01-0.06-4.49c-0.84-6.66-3.94-9.69-10.63-10.48
		c-6.12-0.73-12.27-1.2-18.34-2.21c-6.92-1.16-12.23,0.89-16.88,6.16c-3.72,4.21-8.12,7.85-12.36,11.57
		c-4.78,4.2-9.86,4.26-15.02,0.56c-8.65-6.19-17.48-12.15-25.92-18.62c-4.8-3.68-9.65-6.11-15.84-6.35
		c-8.43-0.33-15.03,2.65-21.1,8.39c-4.03,3.82-9.12,6.51-13.74,9.71c-1.9,1.32-4.1,2.35-5.65,4c-4.82,5.11-3.82,14.97,1.62,18.12
		c4.96,2.86,14.52,1.72,18.67-2.34c2.74-2.68,5.3-5.53,8.02-8.23c7.67-7.61,11.59-7.9,20.47-1.8c8.37,5.75,16.76,11.47,25.22,17.09
		c3.33,2.21,5.01,5.03,5.19,9.07c0.46,10.13,0.54,20.33,3.71,30.14c0.3,0.93,0.43,1.98,0.34,2.95c-0.29,3.04-3.47,5.67-6.7,5.57
		c-3.43-0.11-4.5-2.39-4.69-5.34c-0.11-1.66-0.02-3.33-0.07-5c-0.22-6.49-0.38-12.98-0.71-19.47c-0.32-6.23-3.22-11.04-8.3-14.67
		c-4.33-3.1-8.53-6.39-12.82-9.56c-1.61-1.19-3.2-2.42-4.95-3.38c-5.81-3.16-12.5-0.82-16.1,5.52c-2.91,5.14-1.42,9.55,4.6,13.31
		c2.54,1.59,5.2,2.99,7.75,4.56c5.36,3.3,8.07,7.77,7.96,14.43c-0.2,12.98,0.24,25.97,0.54,38.95c0.06,2.47,0.41,5.01,1.14,7.36
		c2.85,9.13,13.15,13.19,21.37,8.2c3.05-1.85,5.48-4.77,8.08-7.33c3.32-3.26,6.32-6.86,9.82-9.9c4.22-3.66,9.21-5.19,14.88-3.88
		c4.05,0.94,8.11,1.97,12.23,2.45c9.89,1.16,17.24-4.64,18.4-14.51c0.15-1.29-0.89-3.5-1.93-3.93c-1.07-0.44-3.14,0.44-4.18,1.38
		c-1,0.91-1.29,2.63-1.81,4.03c-2.26,6.02-4.12,7.23-10.59,6.25c-4.27-0.65-8.52-1.55-12.72-2.56c-4.84-1.16-9.11-0.07-13.41,2.27
		c-6.92,3.78-12,9.3-16.62,15.55c-2.98,4.03-7.16,6.92-12.54,4.95c-5.25-1.92-6.04-6.81-6.07-11.58
		c-0.07-11.47-0.38-22.98,0.35-34.42c0.74-11.64-3.83-19.55-14.04-24.66c-2.07-1.03-4.17-2.2-5.87-3.74
		c-2.57-2.31-1.51-6.26,1.89-6.84c1.79-0.3,4.19,0.06,5.62,1.09c5.69,4.06,11.15,8.43,16.6,12.82c2.88,2.32,4.18,5.56,4.26,9.24
		c0.11,5.5,0.05,11,0.26,16.49c0.13,3.48,0.04,7.14,1.12,10.35c1.45,4.3,1.08,8.14-0.59,12.11c-0.77,1.84-1.6,3.67-2.25,5.56
		c-0.83,2.38-1.02,4.91,1.85,5.86c2.95,0.97,4.52-1.33,4.85-3.7c1.09-7.96,5.46-11.95,13.28-13.84c6.13-1.48,8.38-6.06,6.76-11.97
		c-3-10.88-3.69-21.97-4.03-33.13c-0.15-4.89-2.11-8.55-6.21-11.28c-9.97-6.65-19.86-13.41-29.76-20.16
		c-8.62-5.87-14.53-5.71-22.57,1.15c-3.8,3.23-7.25,6.87-10.77,10.42c-2.43,2.45-5.32,3.33-8.64,2.93c-3.82-0.46-5.67-4.1-3.56-7.35
		c0.86-1.32,2.25-2.61,3.69-3.2c6.62-2.73,11.78-7.38,17.02-12.05c8.97-8,18.5-7.66,28.01-0.33c9.08,7,18.7,13.29,28.14,19.83
		c5.94,4.11,11.99,3.95,17.55-0.54c5.55-4.48,10.88-9.26,16.08-14.16c3.11-2.93,6.36-4.68,10.74-4.02
		c5.43,0.82,10.88,1.51,16.33,2.22c6.23,0.81,8.05,3.28,6.87,9.37c-0.92,4.79-4.71,6.55-8.94,4.06c-2.15-1.26-4.13-2.82-6.27-4.1
		c-4.47-2.65-9.05-2.45-13.17,0.52c-7.41,5.35-14.77,10.81-21.81,16.63c-1.96,1.62-3.65,4.58-3.92,7.09
		c-1.32,12.09,0.76,23.89,4.1,35.49c0.94,3.28,3.15,5.41,6.38,6.5c5.86,1.97,11.27,1.67,16.56-2.12c3.58-2.56,7.6-4.87,11.78-6.16
		c5.08-1.57,8.42,1.1,9.03,6.4c0.87,7.47-0.41,14.63-4.07,21.25c-2.57,4.64-6.5,7.9-11.83,8.17c-4.25,0.22-8.76-0.09-12.8-1.32
		c-10.85-3.29-19.54-0.71-26.88,7.83c-3.13,3.65-6.9,6.75-10.42,10.06c-2.84,2.68-6.13,3.87-10.07,3.04
		c-4.56-0.96-9.14-1.82-13.71-2.74c-4.41-0.88-6.99-3.65-7.96-7.95c-0.77-3.41-1.53-6.83-2.07-10.28
		c-1.34-8.71-2.66-17.44-3.75-26.18c-0.35-2.86-0.61-6.02,0.23-8.69c2.16-6.88,0.28-12.8-3.2-18.55c-1.13-1.86-2.72-3.08-4.99-1.89
		c-2.29,1.2-2.13,3.19-1.22,5.18c0.96,2.11,2.3,4.08,3.08,6.25c2.23,6.19-0.24,9.23-6.67,8.75C21.6,402.36,10.8,401.71,0,401z"/>
	<path class="st3" d="M348,564c0.2-3.99,0.06-8.03,0.69-11.95c0.62-3.87,1.59-7.81,3.22-11.35c1.69-3.67,4.14-4.44,7.9-2.72
		c3.44,1.57,6.53,3.91,9.71,6c4.85,3.2,9.38,7.01,14.53,9.62c11.6,5.87,27.45,1.1,34.22-9.98c5.45-8.91,7.22-18.53,4.65-28.78
		c-1.5-5.98-4.9-10.07-11.23-11.35c-3.1-0.62-6.25-1.22-9.17-2.37c-3.21-1.26-6.4-2.82-9.2-4.81c-4.66-3.31-6.58-7.81-4.34-13.54
		c0.66-1.7,0.92-3.55,1.55-5.27c2.04-5.62,1.4-11.07-2.11-15.68c-5.19-6.82-4.74-13.4-0.78-20.44c3.4-6.05,5.77-12.44,4.36-19.57
		c-1.39-7.02-2.55-14.12-4.58-20.96c-0.87-2.93-3.29-5.75-5.71-7.79c-3.28-2.76-7.32-4.59-10.88-7.05
		c-3.98-2.75-4.55-4.69-3.37-9.41c0.73-2.91,1.42-5.82,2.18-8.72c2.35-9-0.85-16.33-7.78-21.66c-6.71-5.17-14.66-6.2-22.69-3.02
		c-4.94,1.96-9.69,4.42-14.49,6.75c-4.18,2.03-8.26,1.92-12.52,0.11c-5.2-2.2-10.43-4.45-15.82-6.1c-12.12-3.7-24.01-2.9-35.41,2.91
		c-1.04,0.53-2.09,1.04-3.17,1.48c-3.97,1.62-6.1,1.16-7.25-1.52c-1.28-2.96,0.34-7.03,3.37-8.43c0.3-0.14,0.61-0.28,0.93-0.35
		c7.81-1.66,15.59-3.53,23.45-4.89c6.37-1.1,12.59,0.38,18.69,2.27c5.41,1.67,10.77,3.51,16.24,4.96c7.28,1.93,14.1,0.68,20.57-3.3
		c6.79-4.18,5.49-11.76,0.46-14.79c-3.7-2.23-8.26-3.71-12.57-4.11c-9.02-0.84-17.9-2.16-26.31-5.48
		c-8.67-3.41-17.21-3.16-25.89-0.39c-4.28,1.36-8.57,2.75-12.94,3.77c-4.29,1-6.03,0.03-6.72-2.98c-0.85-3.71,0.96-6.42,4.92-7.25
		c8.45-1.78,16.91-3.51,25.35-5.29c3.71-0.78,7.26-0.58,10.66,1.27c8.51,4.62,17.71,6.45,27.3,7.25c5.09,0.42,10.12,1.92,15.11,3.18
		c6.99,1.77,11.87,5.74,13.29,13.26c0.91,4.84,3.85,7.98,8.7,9.27c7.84,2.08,15.87-3.75,16.99-12.56c0.72-5.66-0.77-10.56-5.7-14.02
		c-2.72-1.91-5.5-3.77-8.06-5.89c-2.19-1.82-3.54-4.21-1.58-6.99c1.99-2.8,4.71-2.26,7.09-0.71c4.05,2.63,7.97,5.46,11.8,8.39
		c1.13,0.86,1.94,2.27,2.6,3.57c0.75,1.47,1.15,3.11,1.74,4.67c3.19,8.41,3.39,16.04-4.58,22.32c-3.1,2.44-4.37,6.15-3.52,10.36
		c1.34,6.69,6.97,10.33,13.3,7.98c7.64-2.83,15.19-5.92,22.66-9.16c5.32-2.31,8.35-6.5,8.52-12.46c0.19-6.72-0.72-13.06-6.9-17.21
		c-1.93-1.3-4.27-2.07-5.96-3.6c-1.19-1.08-2.28-3.07-2.16-4.54c0.09-1.12,2-2.53,3.38-3.04c5.88-2.16,10.48,0.15,13.51,5.74
		c4.74,8.76,6.91,17.89,5.89,27.88c-0.63,6.22-3.12,10.59-9.2,12.94c-9.62,3.73-19.05,7.93-28.68,11.65
		c-5.52,2.13-8.83,5.65-9.46,11.63c-0.61,5.8,1.25,9.75,6.14,12.56c4.79,2.75,8.78,2.73,13.26-1.46
		c8.16-7.63,18.95-10.29,28.25-15.73c3.29-1.92,5.65-0.8,6.89,2.29c1.35,3.34,0.03,7.3-2.99,8.5c-1.37,0.54-2.9,0.77-4.38,0.98
		c-8.31,1.2-15.49,4.84-22.05,9.95c-4.51,3.52-6.54,8.07-5.37,13.61c1.3,6.17,2.8,12.33,4.8,18.3c1.65,4.92,1.58,9.4-0.76,13.98
		c-1.74,3.41-3.75,6.78-4.83,10.41c-0.96,3.22-1.45,6.86-1,10.16c0.76,5.63,4.47,9.1,8.81,9.49c5.64,0.51,11.03-2.24,13.11-7.28
		c1.45-3.51,2.43-7.27,3.2-11.01c1.18-5.75,3.75-9.76,10.11-10.65c2.22-0.31,4.45-1.47,6.39-2.69c6.47-4.05,6.52-12.15-0.15-15.79
		c-3.27-1.78-7.19-2.43-10.87-3.38c-4.47-1.15-6.33-3.01-6.5-6.98c-0.16-3.61,2.48-6,6-5.41c0.49,0.08,1.02,0.17,1.43,0.42
		c6.94,4.25,14.21,8.08,20.7,12.94c5.66,4.23,4.53,17.19-1.44,21.94c-2.71,2.16-5.82,3.85-8.85,5.57
		c-4.88,2.78-7.99,6.89-9.79,12.15c-1.02,2.99-2.32,5.88-3.41,8.85c-2.08,5.64-5.99,8.58-12.09,8.61c-1.98,0.01-4,0.3-5.94,0.73
		c-4.84,1.06-7.05,3.62-7.66,8.58c-0.71,5.72,0.74,9.01,5.29,11.19c1.77,0.85,3.76,1.42,5.71,1.68c3.46,0.46,6.96,0.69,10.45,0.84
		c3.95,0.16,6.58,1.74,7.7,5.75c0.76,2.72,1.82,5.36,2.93,7.97c5.7,13.46,3.04,26.05-3.85,38.23c-0.25,0.43-0.52,0.85-0.8,1.27
		c-9.26,14.11-8.09,13.34-22.05,14.79c-0.77,0.08-1.49,0.59-2.23,0.9c-6,0-12,0-18,0c-0.76-0.63-1.47-1.33-2.28-1.89
		c-6.72-4.64-15.09-7.03-19.62-14.71c-0.46-0.79-3.28-1.26-3.79-0.73c-1.06,1.11-2.23,3.52-1.69,4.47c1.49,2.65,3.57,5.11,5.88,7.11
		c2.57,2.22,5.65,3.85,8.51,5.74C362.67,564,355.33,564,348,564z"/>
	<path class="st3" d="M564,449c-3.17,1.51-5.21,5.83-9.31,4.77c-5.25-1.36-10.32-3.42-15.41-5.34c-1.2-0.45-2.21-1.48-3.2-2.37
		c-5.09-4.58-10.98-5.44-17.65-4.81c-9.93,0.93-19.93,1.17-29.91,1.67c-6.3,0.31-11.39-2.52-15.42-6.95
		c-1.46-1.61-2.34-4.47-2.18-6.67c0.27-3.71,3.89-5.07,7.09-3.08c1.12,0.7,2.23,1.54,3.07,2.55c3.87,4.64,9.08,6.17,14.75,5.94
		c8.3-0.33,16.6-1.02,24.88-1.76c4.22-0.38,7.46-2.64,9.71-6.28c0.87-1.42,1.69-2.89,2.72-4.18c5.96-7.41,9.1-15.5,8.28-25.34
		c-0.34-4.07,1.27-8.55,2.91-12.47c2.44-5.83,2.6-11.5,1.41-17.57c-2.15-11.05-2.39-22.1,0.63-33.12c2.45-8.96,1-12.4-6.57-17.95
		c-6.75-4.95-13.98-7.72-22.44-5.09c-5.86,1.82-7.66,5.07-5.03,10.59c1.53,3.22,3.99,6.13,6.51,8.71c2.87,2.94,4.19,5.99,4.09,10.18
		c-0.21,8.3-0.21,16.63,0.31,24.91c0.68,10.83-2.33,21.14-3.66,31.69c-0.15,1.16-0.39,2.3-0.54,3.45
		c-1.67,13.17-10.64,15.11-20.56,13.42c-4.15-0.71-6.12-3.28-5.66-7.48c0.45-4.1,1.52-8.16,2.59-12.17
		c4.14-15.55,5.12-31.26,1.49-46.96c-1.45-6.25-4.05-12.33-6.82-18.15c-2.8-5.88-7.12-7.23-13.84-5.42
		c-5.26,1.42-7.63,4.58-7.39,10.81c0.12,2.92,0.47,6.21,1.89,8.65c7.74,13.28,7.05,27.42,4.97,41.78c-0.57,3.95-1.21,7.9-1.88,11.84
		c-0.28,1.64-0.37,3.49-1.23,4.79c-0.91,1.35-3.06,3.26-3.94,2.94c-1.51-0.55-3.4-2.63-3.43-4.1c-0.08-3.61,0.94-7.22,1.27-10.86
		c0.69-7.59,1.84-15.21,1.61-22.79c-0.15-4.99-1.49-10.39-3.87-14.76c-3.95-7.25-4.34-14.59-2.99-22.23
		c0.96-5.44,0.49-10.51-1.37-15.68c-2.03-5.63-3.73-11.39-5.4-17.15c-1.05-3.6-1.25-7.24,0.92-10.6c1.92-2.96,4.89-4.23,7.7-3.09
		c3.04,1.24,4.14,3.79,3.76,6.89c-0.26,2.14-0.89,4.23-1.36,6.34c-1.07,4.86-0.83,9.59,1.42,14.13c2.09,4.21,5.02,5.8,10.2,5.49
		c5.06-0.3,8.77-2.69,9.9-6.94c0.77-2.87,1.03-5.9,1.29-8.87c0.43-5.02,3.05-8.12,7.96-8.82c12.51-1.79,25.03-3.62,37.6-4.86
		c2.64-0.26,5.6,1.71,8.28,2.95c5.58,2.59,11.03,5.45,16.6,8.04c1.62,0.75,3.49,0.95,5.24,1.41c0,4.33,0,8.67,0,13
		c-3.63,0.98-6.31-0.43-8.96-2.92c-3.38-3.17-6.89-6.37-10.84-8.74c-13.77-8.25-27.98-5.16-41.92-0.5c-2.43,0.81-4.74,3.8-5.88,6.34
		c-2.96,6.58-2.89,13.47,1.34,19.54c7.25,10.4,9.84,21.87,9.95,34.37c0.12,13.91-0.41,27.63-5.79,40.7
		c-1.56,3.8-1.41,6.08,0.78,6.99c2.32,0.96,4.81-0.89,6.08-4.5c0.11-0.31,0.17-0.64,0.26-0.97c3.62-12.9,5.53-25.98,5.33-39.44
		c-0.21-13.83-1.28-27.18-10.02-38.87c-2.02-2.71-2.67-6.81-2.96-10.35c-0.34-4.1,1.72-7.49,5.98-8.77
		c15.94-4.78,31.02-5.12,42.96,9.03c3.66,4.34,8.06,6.25,13.68,5.09c0,3,0,6,0,9c-5.31,0.65-8.29,3.4-9.78,9.51
		c-2.1,8.66-1.69,17.45-0.74,26.2c0.7,6.4,4.03,10.75,10.52,12.29c0,2.67,0,5.33,0,8c-4.48-0.75-9.09-1.56-11.94,3.22
		c-2.53,4.23-3.45,8.88-2.5,13.82c0.71,3.68,2.78,5.96,6.55,6.39c2.62,0.3,5.26,0.39,7.89,0.57c0,2.67,0,5.33,0,8
		c-1.98-0.01-3.98,0.15-5.94-0.05c-10.41-1.09-15.84,5.06-19.67,13.47c-1.72,3.78-0.94,7.16,1.97,9.92
		c5.47,5.2,11.19,5.72,17.62,1.73c1.91-1.18,4.01-2.06,6.02-3.07C564,441.66,564,445.33,564,449z"/>
	<path class="st3" d="M564,167c-0.16,0.03-0.35,0.01-0.49,0.09c-2.8,1.6-5.77,4.78-8.36,4.49c-5.3-0.59-10.4-2.99-15.55-4.75
		c-0.9-0.31-1.7-1.08-2.38-1.8c-5.35-5.64-11.95-6.28-19.29-5.6c-9.6,0.89-19.28,1.04-28.92,1.5c-6.06,0.29-11.09-2.21-15.27-6.27
		c-1.55-1.5-2.73-3.86-3.05-5.98c-0.21-1.42,1.01-3.73,2.28-4.5c1.23-0.75,3.36-0.14,5.07,0.07c0.56,0.07,1.14,0.7,1.56,1.2
		c5.65,6.64,13.1,8.06,21.27,7.33c6.63-0.59,13.27-1.08,19.86-1.93c4.49-0.58,8.12-2.85,10.32-7.04c0.54-1.03,1.17-2.03,1.88-2.94
		c5.77-7.44,9.19-15.46,8.59-25.28c-0.27-4.43,1.43-9.17,3.01-13.48c2.02-5.52,2.43-10.86,1.29-16.62
		c-2.22-11.2-2.8-22.49,0.7-33.57c2.42-7.68-0.07-13.29-6.35-17.73c-6.93-4.91-14.29-7.89-22.93-5.29
		c-5.72,1.73-7.49,4.69-5.01,10.14c1.61,3.53,4.21,6.77,6.95,9.56c2.68,2.73,3.78,5.51,3.73,9.3c-0.12,8.48-0.11,16.98,0.36,25.45
		c0.6,10.82-2.31,21.14-3.74,31.67c-0.36,2.63-0.74,5.3-1.48,7.84c-2.47,8.45-15.07,12.98-22.26,7.86c-1.51-1.08-2.84-3.5-2.87-5.32
		c-0.05-3.26,0.66-6.61,1.58-9.78c4.82-16.61,6.25-33.43,2.41-50.35c-1.42-6.25-4.13-12.29-6.82-18.16
		c-2.51-5.45-7.35-7.14-13.4-5.57c-5.68,1.48-8.09,4.59-7.81,11.04c0.13,2.92,0.53,6.18,1.94,8.64c7.24,12.63,7.14,26.09,5.13,39.83
		c-0.82,5.6-1.79,11.18-2.75,16.75c-0.46,2.65-1.64,4.89-4.7,4.89c-2.31,0-3.84-2.76-3.41-6.31c0.46-3.8,1.17-7.57,1.95-11.32
		c2.87-13.78,2.26-27.07-4.73-39.73c-3.07-5.57-1.97-11.78-1.03-17.65c0.87-5.46,0.37-10.49-1.48-15.66
		c-2.13-5.95-3.88-12.04-5.49-18.15c-0.94-3.58-1.15-7.31,1.66-10.4c1.94-2.13,4.3-3.3,7.14-2.19c2.81,1.11,4.02,3.49,3.76,6.41
		c-0.19,2.13-0.77,4.24-1.26,6.34c-1.15,4.84-1.03,9.56,1.09,14.16c2.11,4.57,5,6.25,10.42,5.91c5.4-0.34,8.83-2.72,10.01-7.42
		c0.69-2.72,0.98-5.57,1.17-8.39c0.33-4.84,2.82-7.75,7.49-8.66c6.04-1.18,12.09-2.31,18.18-3.22c4.94-0.74,9.95-0.96,14.89-1.71
		c5.25-0.8,9.66,0.91,14.26,3.24c6.76,3.42,13.89,6.09,20.86,9.08c0,4.33,0,8.67,0,13c-3.67,1.11-6.38-0.49-8.97-2.93
		c-2.9-2.73-5.76-5.6-9.06-7.77c-13.98-9.19-28.69-6.27-43.27-1.82c-2.12,0.65-4.27,2.8-5.4,4.82c-3.52,6.29-4.19,12.94-0.68,19.57
		c1.56,2.94,3.44,5.71,4.91,8.69c1.69,3.41,4.11,6.88,4.43,10.49c0.97,10.91,1.71,21.92,1.31,32.84c-0.32,8.91-1.68,17.91-5.9,26.14
		c-1.01,1.97-1.42,4.5,1.31,5.52c2.55,0.95,4.57-0.33,5.54-2.87c0.65-1.7,1.14-3.48,1.64-5.23c4.82-16.92,5.06-34.16,3.73-51.54
		c-0.49-6.48-2.31-12.31-5.83-17.8c-2.4-3.75-4.53-7.81-5.99-12.01c-1.94-5.6,0.05-11.28,4.67-12.76
		c11.42-3.66,23.11-5.99,34.29,0.66c3.66,2.17,6.97,5.16,9.88,8.29c3.76,4.04,7.96,5.83,13.37,4.73c0,2.67,0,5.33,0,8
		c-6.12,1.87-8.98,6.31-10.16,12.34c-1.56,7.93-1.63,15.86-0.51,23.82c0.9,6.43,3.83,11.29,10.67,12.84c0,2.67,0,5.33,0,8
		c-4.32-0.85-8.79-1.6-11.64,2.81c-2.96,4.6-4.06,9.7-2.54,15.17c0.78,2.81,2.39,4.75,5.35,5.16c2.93,0.4,5.89,0.58,8.83,0.85
		c0,2.67,0,5.33,0,8c-2-0.07-3.99-0.23-5.99-0.2c-10.21,0.15-16.06,4.23-19.75,13.71c-1.51,3.88-0.56,7.59,2.64,10.33
		c5.84,5,10.86,5.32,17.31,1.08c1.95-1.28,3.86-2.61,5.79-3.92C564,159,564,163,564,167z"/>
	<path class="st3" d="M211,564c4.13-2,8.12-4.45,12.44-5.89c5.03-1.67,9.58-3.73,13.06-7.83c3.49-4.12,7.98-6.19,13.31-7.17
		c10.9-2.01,16.62-8.95,17.25-20.07c0.26-4.49-1.66-7.79-5.43-9.93c-3.76-2.14-7.94-3.62-11.47-6.06
		c-4.45-3.08-8.59-6.68-12.56-10.38c-2.06-1.91-2.88-4.86-0.83-7.23c1.94-2.25,4.98-2.23,7.39-0.85c2.08,1.19,4.09,2.97,5.39,4.97
		c4.89,7.57,12.42,11.61,20.31,14.69c3.01,1.17,7.35,0.48,10.54-0.77c4.43-1.73,8.41-4.67,12.46-7.29c3.43-2.22,5.25-5.5,5.35-9.64
		c0.06-2.5,0.35-5.03,0.06-7.49c-0.93-7.86,0.97-14.81,5.85-21.06c2.35-3.01,4.31-6.33,6.48-9.48c2.41-3.49,3.13-7.31,2.32-11.42
		c-1.13-5.72-1.76-11.61-3.65-17.07c-1.65-4.77-4.26-9.4-7.31-13.43c-3.98-5.26-6.14-10.41-4.24-17.09
		c0.84-2.97,0.67-6.28,0.59-9.43c-0.17-6.66-4.26-11.07-10.92-12.14c-13.66-2.18-24.18,4.01-29.14,16.9
		c-1.36,3.55-2.94,7.11-5.06,10.23c-1.41,2.08-3.76,3.86-6.08,4.85c-1.45,0.62-4.1,0.08-5.38-0.96c-1.85-1.51-2.58-4.37-0.74-6.3
		c6.32-6.64,10.37-14.55,13.9-22.84c0.47-1.12,1.69-2.24,2.82-2.7c6.33-2.51,12.6-5.36,19.16-7.06c9.25-2.39,17.73,0.94,25.8,5.31
		c2.59,1.4,3.86,3.66,3.9,6.53c0.08,5.66,0.28,11.33,0,16.97c-0.29,5.96,1.21,11.28,4.91,15.85c4.9,6.06,7.14,12.86,7.8,20.62
		c1.18,13.76,5.6,16.98,19.38,14.67c4.04-0.68,8.13-1.97,11.81-3.76c6.97-3.4,9.99-9.63,10.05-17.14
		c0.06-8.31-5.02-13.63-13.34-14.57c-4.04-0.45-8.23,0.24-11.4-3.66c-4.2-5.17-7.72-10.45-7.66-17.41c0.01-1.33-0.01-2.67-0.01-4
		c0-10.99,3.37-15.56,14.15-18.63c1.48-0.42,4.23-0.11,4.77,0.81c0.81,1.37,0.8,3.93,0.03,5.39c-1.03,1.95-2.95,3.59-4.81,4.91
		c-4.17,2.96-6.36,6.71-5.62,11.89c0.81,5.66,3.84,9.42,9.46,11.01c3.36,0.95,6.82,1.75,9.97,3.19
		c10.16,4.64,14.43,12.25,13.14,23.31c-0.36,3.11-1.31,6.17-2.14,9.21c-2,7.3-6.43,11.81-13.96,14.12
		c-8.25,2.53-16.57,3.66-25.07,3.81c-5.41,0.09-9.23,2.45-11.84,6.96c-2.83,4.89-5.91,9.71-8.07,14.89
		c-1.43,3.42-1.83,7.41-1.97,11.18c-0.15,4.1,0.87,8.02,5.53,9.61c4.93,1.69,10.05,0.49,13.1-3.49c1.49-1.95,2.52-4.29,3.59-6.53
		c0.79-1.65,1.22-3.45,1.95-5.13c1.41-3.25,3.73-5.3,7.33-6.13c8.25-1.9,16.44-4.05,24.66-6.1c3.95-0.99,6.62,0.73,7.19,4.65
		c0.53,3.64-1.76,6.74-5.32,6.99c-4.15,0.28-8.32,0.29-12.46,0.62c-7.09,0.57-12.66,3.6-16.26,10.03c-1.95,3.47-4.28,6.75-6.6,9.99
		c-2.65,3.69-6.18,5.43-10.84,4.36c-1.94-0.45-3.95-0.6-5.92-0.95c-4.81-0.84-9.16,0.09-13.32,2.78c-5.3,3.43-10.74,6.69-16.3,9.7
		c-3.44,1.86-5.74,4.4-7.04,8.02c-1.97,5.48-4.02,10.93-6.05,16.39c-2.17,5.84-6.19,9.25-12.54,9.92c-2.63,0.28-5.26,0.95-7.77,1.79
		c-6.32,2.09-8.31,5.18-8.08,11.97C231,564,221,564,211,564z"/>
	<path class="st3" d="M440,564c2.63-3.44,5.28-6.86,7.89-10.31c1.94-2.57,4.33-3.69,7.7-3.68c7.25,0.01,9.67-1.47,11.27-8.77
		c1.86-8.47,6.18-13.02,14.96-13.87c3.88-0.38,7.75-1.99,11.39-3.58c4.44-1.94,8.33-1.85,12.03,1.42c0.74,0.66,1.61,1.19,2.48,1.68
		c2.98,1.69,5.71,1.48,6.55-0.64c1.11-2.78-0.63-4.39-2.79-5.61c-1.3-0.74-2.68-1.35-4.06-1.91c-3.48-1.43-5.14-3.97-5.16-7.74
		c-0.02-4-0.6-8.03-0.17-11.97c0.22-1.99,1.72-4.35,3.37-5.55c2.55-1.86,5.73-0.19,6.53,2.91c0.21,0.8,0.29,1.65,0.28,2.48
		c-0.1,6.9,1.6,13.03,6.52,18.26c1.57,1.67,2.26,4.45,2.69,6.83c1.32,7.3-2.56,11.58-9.97,11.23c-2.16-0.1-4.3-0.46-6.44-0.77
		c-7.53-1.06-14.98-0.93-22.19,1.73c-5.86,2.16-9.18,6.55-9.86,12.68c-0.89,8.06,6.74,14.96,14.05,11.75
		c10.32-4.52,21.09-4.33,31.8-5.43c3.15-0.32,6.28-0.8,9.41-1.2c6.2-0.8,9.9-4.45,11.45-10.32c2.5-9.44,2.91-19.1,2.26-28.77
		c-0.14-2.16-1.41-4.47-2.74-6.27c-3.62-4.91-5.06-10.3-5.22-16.34c-0.3-11.44-6.98-18.86-18.52-20.16
		c-5.41-0.61-10.98-0.26-16.44,0.18c-4.86,0.39-8.73,3.07-11.73,6.91c-4.81,6.16-8.39,12.69-8.06,20.95
		c0.21,5.03-2.28,7.64-6.35,7.92c-3.04,0.2-5.62-0.99-5.94-4.05c-0.33-3.17-0.61-7.03,0.84-9.59c5.08-8.97,10.73-17.64,16.6-26.11
		c1.31-1.89,4.35-3.36,6.73-3.6c8.27-0.86,16.6-1.4,24.92-1.45c5.23-0.04,10.11,1.92,14.21,5.41c1.52,1.3,3.09,2.54,4.59,3.86
		c6.05,5.35,12.11,5.62,20.87,1.35c3.57-1.74,4.14-5.27,5.02-8.74c0.71-2.8,2.13-5.43,3.24-8.13c0,8,0,16,0,24
		c-5.02,1.03-10.1,1.8-15.03,3.16c-5.81,1.6-7.91,5.8-6.56,11.99c1.58,7.24,5.34,10.48,11.52,9.46c3.41-0.56,6.72-1.72,10.07-2.61
		c0,3,0,6,0,9c-8.88-0.56-13.68,3.33-13.87,12.13c-0.19,8.78,0,17.49-3.64,25.81c-1.41,3.22,0.07,6.11,2.48,8.53
		c4.21,4.22,9.3,5.4,15.03,4.53c-0.5,0.33-1,0.95-1.5,0.96c-7.17,0.06-14.33,0.04-21.5,0.04c-1.2-0.68-2.45-2.02-3.6-1.94
		c-6.15,0.45-12.27,1.25-18.4,1.94c-16,0-32,0-48,0c-5.41-8.26-14.6-8.26-20,0C447.33,564,443.67,564,440,564z"/>
	<path class="st3" d="M99,0c-5.86,4.65-11.72,9.32-17.6,13.95c-6.71,5.29-7.27,10.62-1.25,16.79c2.39,2.44,5.36,4.54,8.43,6.03
		c4.33,2.1,7.55,1.12,10.61-2.69c1.97-2.46,3.72-5.13,5.28-7.87c2.87-5.05,7.29-7.32,12.85-6.95c6.13,0.41,12.23,1.31,18.33,2.08
		c6.76,0.85,13.56,1.55,20.26,2.75c6.85,1.23,13.63,2.89,20.39,4.54c4.38,1.07,6.95,4.16,7.11,8.59c0.4,11.45,1.4,22.99,0.49,34.36
		c-1.21,15.28-11.42,24.31-24.95,29.58c-2.95,1.15-6.98,0.53-10.24-0.32c-7.28-1.9-14.03-2.12-20.53,2.43
		c-1.33,0.93-4.97,1.11-5.25,0.52c-0.9-1.87-1.43-4.47-0.84-6.41c1.45-4.76,8.36-8.84,13.59-8.3c2.95,0.3,5.87,1.16,8.76,1.91
		c14.53,3.75,27.85-3.68,30.38-18.51c1.54-9.02,0.68-18.53,0.24-27.78c-0.28-5.83-4.39-9.23-9.96-10.36
		c-4.39-0.9-8.9-1.24-13.34-1.87c-8.57-1.22-17.14-2.42-25.7-3.71c-7.24-1.09-13.11,0.81-17.3,7.17c-1.91,2.91-4.09,5.68-6.37,8.33
		c-4.25,4.95-7.57,5.69-13.18,2.69c-6.93-3.71-13.61-7.84-17.95-14.72c-3.82-6.04-9.12-8.86-16.35-8.43
		C46.97,24.3,38.97,24.27,31,24.71c-5.51,0.3-9.73,3-12.65,7.78C14.13,39.4,8.07,43.69,0,45c0-3,0-6,0-9
		c5.15,0.03,8.26-3.33,10.58-7.15c1.16-1.9,1.85-5.22,0.97-7.02C9.15,16.94,5.76,12.56,0,11C0,7.42,0,3.85,0,0c2.99,0,6,0,9,0
		c0.4,9.52,7.78,17.02,16.16,16.65c12.13-0.53,24.27-0.81,36.4-1.43c2.53-0.13,5.51-0.67,7.42-2.14C74.23,9.03,79.02,4.4,84,0
		C89,0,94,0,99,0z"/>
	<path class="st3" d="M85,564c2.51-2.19,5.27-4.15,7.46-6.61c3.39-3.82,7.58-5.23,12.45-5.23c8.66-0.01,17.34-0.3,25.99,0.14
		c3.7,0.19,7.41,1.69,10.96,3.02c5.37,2.01,10.73,3.46,16.55,2.87c5-0.51,8.36-3.04,10.29-7.55c0.85-1.98,1.44-4.08,2.2-6.11
		c1.95-5.25,0.72-9.83-2.97-13.84c-2.71-2.94-5.45-5.85-8.27-8.68c-3.36-3.36-4.87-7.48-5.25-12.1c-0.3-3.65,1.1-6.42,3.47-6.97
		c2.44-0.57,5.05,1.12,5.93,4.88c1.91,8.18,7.06,14.2,12.41,20.18c2.8,3.13,6.22,4.99,10.47,5.08c5.49,0.12,11.02,0.57,16.47,0.1
		c3.17-0.27,6.49-1.6,9.26-3.25c5.62-3.37,6.75-9.77,2.15-14.38c-4.29-4.3-6.79-8.98-8.31-14.85c-1.61-6.22-7.17-9.34-12.9-11.54
		c-2.03-0.78-4.39-0.17-4.75,2.22c-0.21,1.4,0.91,3.26,1.94,4.49c0.76,0.91,2.42,1.01,3.54,1.69c1.68,1.02,3.51,1.99,4.82,3.41
		c2.51,2.74,2.82,6.89,1.03,8.67c-2.12,2.11-8.13,2.35-10.08-0.25c-3.28-4.35-6.78-8.85-8.64-13.86
		c-2.92-7.85,7.65-17.42,16.1-14.56c8.35,2.82,15.65,7.02,17.71,17.08c0.9,4.38,3.82,8.39,6.08,12.43c1.87,3.33,4.17,6.42,6.2,9.67
		c1.8,2.89,1.57,5.77-0.67,8.3c-8.88,10.06-19.55,15.87-33.45,13.78c-0.99-0.15-1.98-0.27-2.97-0.42
		c-8.04-1.19-11.22,0.82-13.68,8.64c-1.99,6.3-1.2,8.53,4.21,12.17c0.51,0.34,0.86,0.92,1.28,1.39c-14.67,0-29.33,0-44,0
		c-0.82-0.47-1.59-1.15-2.47-1.37c-9.42-2.36-18.99-2.39-28.54-1.21c-2.07,0.26-4,1.69-5.99,2.58C95.67,564,90.33,564,85,564z"/>
	<path class="st3" d="M423,564c3.11-4.9,6.44-9.68,9.29-14.73c7.23-12.87,10.16-26.31,4.57-40.67c-1.51-3.88-2.93-7.79-4.45-11.67
		c-1.11-2.85-0.87-5.46,0.76-8.09c5-8.06,9.74-16.29,14.93-24.23c2.24-3.43,5.05-6.65,8.18-9.26c1.39-1.16,4.52-1.31,6.37-0.61
		c2.91,1.11,2.65,4.35,0.22,7.54c-5.33,7.01-10.56,14.09-15.73,21.22c-4.91,6.77-5.52,14.09-2.46,21.8
		c0.31,0.77,0.46,1.62,0.85,2.34c4.48,8.27,5.02,16.67,1.29,25.42c-0.81,1.9-0.92,4.27-0.74,6.38c0.36,4.31-1.26,7.62-3.83,10.94
		c-3.36,4.33-6.2,9.05-9.26,13.61C429.67,564,426.33,564,423,564z"/>
	<path class="st3" d="M330,564c1.05-3.13,2.25-6.21,3.11-9.39c1.6-5.93,3.02-11.92,4.46-17.89c0.82-3.39,1.94-6.77,2.21-10.21
		c0.8-10.26,7.17-17.12,14.44-22.98c5.67-4.56,13.87-2.81,18.87,2.56c3.39,3.65,6.61,7.66,10.65,10.44
		c3.72,2.56,8.37,3.88,12.73,5.39c4.34,1.5,6.08,3.22,5.47,6.38c-0.69,3.59-3.81,5.64-8.03,4.71c-2.2-0.48-4.48-1.51-6.25-2.9
		c-6.01-4.72-11.9-9.61-17.67-14.62c-8.05-6.99-18.69-3.86-19.94,6.87c-0.87,7.46-3.33,13.91-6.08,20.63
		c-1.78,4.35-1.78,9.43-2.62,14.17c-0.4,2.29-0.9,4.56-1.36,6.83C336.67,564,333.33,564,330,564z"/>
	<path class="st3" d="M0,561c1.16-0.98,2.71-1.75,3.41-3c1.62-2.89,2.91-5.98,4.19-9.04c1.33-3.19,3.56-4.72,7.02-4.24
		c6.09,0.85,12.17,1.89,18.28,2.57c4.45,0.5,8.95,0.82,13.42,0.75c10.62-0.15,18.14-5.65,23.61-14.37c0.53-0.84,0.98-1.74,1.51-2.59
		c2.57-4.05,4.45-4.94,7.05-3.36c2.92,1.77,4.45,6.78,2.78,9.69c-0.73,1.27-1.79,2.43-2.92,3.37c-4.73,3.94-9.34,8.07-14.39,11.56
		c-2.91,2.01-6.47,3.69-9.92,4.15c-8.75,1.18-17.59,1.21-26.27-1.04c-1.29-0.33-2.6-0.56-3.91-0.78c-6.74-1.1-10.23,0.62-13.5,6.66
		c-0.47,0.88-0.9,1.78-1.36,2.66c-3,0-6,0-9,0C0,563,0,562,0,561z"/>
	<path class="st3" d="M0,502c6.15-0.19,10.93,2.82,15.97,5.95c5.43,3.37,11.37,6.39,17.5,8.05c9.26,2.52,16.74-3.03,18.58-12.52
		c0.41-2.12,0.33-4.44,1.18-6.35c0.72-1.61,2.48-3.85,3.76-3.83c1.68,0.02,4.14,1.6,4.86,3.16c2.02,4.38,2.34,9.08-0.87,13.22
		c-2.85,3.68-5.97,7.14-8.87,10.78c-3.48,4.38-8.24,5.41-13.4,5.14c-9.1-0.48-17.76-2.04-24.71-8.93c-3.72-3.7-8.61-5.6-14.02-5.67
		C0,508,0,505,0,502z"/>
	<path class="st3" d="M0,220c5.77-0.23,10.52,2,15.03,5.52c5.39,4.21,11.39,7.46,18.31,8.65c9.72,1.67,17.14-3.48,18.78-13.13
		c0.39-2.29,0.58-4.69,1.47-6.79c0.55-1.31,2.2-2.97,3.39-3.01c1.5-0.04,3.71,1.04,4.44,2.3c2.57,4.45,2.91,9.37-0.18,13.65
		c-3.29,4.56-6.97,8.94-11.01,12.84c-1.85,1.78-4.91,2.88-7.54,3.14c-3.92,0.39-7.96-0.07-11.93-0.46
		c-5.42-0.53-10.22-2.51-14.37-6.24C11.78,232.3,6.59,229.02,0,229C0,226,0,223,0,220z"/>
	<path class="st3" d="M74,0c-4.66,6.44-11.03,8.88-18.88,8.77C46.37,8.64,37.6,9.09,28.84,9.29c-0.99,0.02-1.99,0.07-2.98,0.08
		C18.86,9.39,16.35,7,16,0C35.33,0,54.67,0,74,0z"/>
	<path class="st3" d="M283,564c2.06-5.94,4.31-11.82,6.14-17.83c3.2-10.51,11.04-16.17,20.54-20.17c1.35-0.57,3.15-1.26,4.29-0.79
		c1.57,0.64,3.49,2.14,3.87,3.62c0.81,3.18-3.47,9.25-6.76,9.25c-10.38,0-13.88,7.01-16.21,15.22c-0.99,3.47-1.27,7.14-1.88,10.71
		C289.67,564,286.33,564,283,564z"/>
	<path class="st3" d="M0,155c0.33-0.05,0.66-0.08,0.98-0.15c4.73-0.91,9.72-1.43,12.55,3.29c2.94,4.88,3.21,10.38,0.55,15.71
		c-0.44,0.88-0.93,1.8-1.61,2.5c-4.73,4.87-7.8,10.62-9.65,17.14C2.36,195.13,0.97,196.5,0,198c0-8,0-16,0-24
		c1.62-1.03,3.39-1.88,4.83-3.11c4.13-3.52,4.82-5.46,3.05-7.67C6.16,161.07,3.91,161.58,0,165C0,161.67,0,158.33,0,155z"/>
	<path class="st3" d="M0,437c13.61-3.14,16.48,4.68,15.18,15.14c-0.27,2.17-1.31,4.58-2.76,6.19c-4.39,4.91-7.7,10.28-9.44,16.68
		C2.5,476.81,1.02,478.34,0,480c0-8,0-16,0-24c2.59-1.96,5.38-3.72,7.69-5.96c1.53-1.48,1.58-3.74-0.27-5.31
		c-1.83-1.55-3.75-1-5.35,0.53C1.26,446.04,0.68,447.07,0,448C0,444.33,0,440.66,0,437z"/>
	<path class="st3" d="M514,0c-6.2,0.95-12.42,1.81-18.6,2.9c-2.09,0.37-4.12,1.24-6.11,2.03c-4.84,1.93-7.15,5.63-7.42,10.77
		c-0.14,2.64-0.24,5.32-0.77,7.89c-0.53,2.57-2.46,3.96-5.11,3.77c-2.5-0.19-4.15-1.98-4.07-4.27c0.13-3.92,0.67-7.87,1.48-11.72
		c0.9-4.25,1.36-8.2-2.4-11.37C485.33,0,499.67,0,514,0z"/>
	<path class="st3" d="M564,270c-0.9,0.97-1.63,2.39-2.73,2.81c-1.7,0.63-4.07,1.32-5.38,0.59c-1.35-0.76-1.78-3.18-2.59-4.88
		c-0.06-0.12,0.03-0.34,0.11-0.48c4.07-7.64,2.53-15.89,2.7-23.97c0.12-5.48,2.19-7.5,7.89-8.08C564,247.33,564,258.67,564,270z"/>
	<path class="st3" d="M564,552c-0.65,0.74-1.33,1.46-1.94,2.23c-1.7,2.12-3.88,2.65-6.2,1.41c-2.33-1.24-3.34-3.55-2.27-5.94
		c3.41-7.61,2.79-15.55,2.55-23.53c-0.16-5.18,2.16-7.38,7.86-8.18C564,529.33,564,540.66,564,552z"/>
	<path class="st3" d="M0,94c4.93,0.34,9.86,0.77,14.8,1c6.5,0.3,8.92,1.84,8.54,5.68c-0.39,3.99-3.46,5.39-9.79,4.23
		C9.01,104.06,4.52,102.98,0,102C0,99.33,0,96.67,0,94z"/>
	<path class="st3" d="M0,376c5.75,0.39,11.51,0.75,17.26,1.18c4.62,0.34,6.21,1.86,5.91,5.46c-0.31,3.66-2.67,5.31-7.16,4.55
		C10.65,386.29,5.33,385.08,0,384C0,381.33,0,378.66,0,376z"/>
	<path class="st3" d="M564,149c-2.83,1.21-5.8,2.17-8.45,3.68c-4.81,2.74-7.68,2.95-9.84,0.16c-1.98-2.55-0.74-7.15,3.46-9.67
		c2.72-1.63,6.17-2.13,9.36-2.86c1.75-0.4,3.64-0.23,5.47-0.32C564,143,564,146,564,149z"/>
	<path class="st3" d="M564,431c-2.84,1.21-5.81,2.19-8.49,3.68c-5.14,2.86-8.28,2.93-10.12-0.2c-1.58-2.69,0.03-7.27,4.19-9.58
		c2.65-1.48,5.92-1.94,8.96-2.59c1.76-0.38,3.64-0.23,5.47-0.31C564,425,564,428,564,431z"/>
	<path class="st3" d="M564,87c-2.68-2.05-4.2-4.76-4.19-8.12c0.02-6.45-0.13-12.93,0.48-19.33c0.22-2.28,2.41-4.37,3.71-6.54
		C564,64.33,564,75.67,564,87z"/>
	<path class="st3" d="M564,369c-6.83-6.83-6.83-27.85,0-34C564,346.33,564,357.66,564,369z"/>
	<path class="st3" d="M564,214c-2.8,0.92-5.57,2.01-8.42,2.71c-3.62,0.89-5.97-0.34-6.72-3.15c-0.75-2.81,0.74-5.01,4.45-5.84
		c3.52-0.79,7.12-1.17,10.69-1.72C564,208.67,564,211.33,564,214z"/>
	<path class="st3" d="M564,497c-2.72,0.57-5.45,1.13-8.17,1.7c-3.96,0.83-6.45-0.4-7-3.48c-0.52-2.91,0.95-4.75,4.88-5.57
		c3.4-0.71,6.86-1.11,10.29-1.65C564,491,564,494,564,497z"/>
	<path class="st3" d="M564,10c-7.49-2.3-14.86-4.86-21-10c7,0,14,0,21,0C564,3.33,564,6.67,564,10z"/>
	<path class="st3" d="M322,0c-7.66,7.78-14.73,7.78-22,0C307.33,0,314.67,0,322,0z"/>
	<path class="st3" d="M564,119c-0.66,0.04-1.32,0.14-1.98,0.12c-4.66-0.14-6.19-1.18-6.32-4.48c-0.14-3.75,2.02-6.98,6.3-6.56
		c0.65,0.06,1.33-0.05,1.99-0.08C564,111.67,564,115.33,564,119z"/>
	<path class="st3" d="M564,401c-2.97,0.31-6.44,1.06-7.68-2.51c-0.64-1.85-0.28-5.06,0.97-6.31c1.48-1.48,4.41-1.52,6.71-2.18
		C564,393.66,564,397.33,564,401z"/>
	<path class="st3" d="M0,300c0.52,0.37,1.11,0.68,1.55,1.13C6.21,305.74,5.82,308.43,0,312C0,308,0,304,0,300z"/>
	<path class="st3" d="M0,18c0.41,0.28,0.87,0.5,1.22,0.84C6.24,23.75,5.97,26.12,0,30C0,26,0,22,0,18z"/>
	<path class="st3" d="M267,0c-3.85,0.85-7.69,1.77-11.56,2.54c-2.92,0.58-5.6,0.18-7.44-2.54C254.33,0,260.67,0,267,0z"/>
	<path class="st3" d="M0,533c3.37,3.75,4.46,7.84,1.97,12.54C1.22,546.97,0.65,548.51,0,550C0,544.33,0,538.66,0,533z"/>
	<path class="st3" d="M17,564c0.79-3.42,3.51-3.17,5.9-2.75c4.07,0.71,8.07,1.81,12.1,2.75C29,564,23,564,17,564z"/>
	<path class="st3" d="M0,251c4.66,6.3,4.66,9.28,0,15C0,261,0,256,0,251z"/>
</g>
</svg>
